<svg width="8" height="10" viewBox="0 0 8 10" fill="none" xmlns="http://www.w3.org/2000/svg">
<path d="M0.0731167 9.19379C-0.0601466 9.39369 -0.00613098 9.66377 0.193764 9.79703C0.393659 9.93029 0.663737 9.87628 0.797 9.67638L0.435059 9.43509L0.0731167 9.19379ZM6.86161 0.349778C6.8145 0.1142 6.58533 -0.0385798 6.34975 0.00853589L2.51077 0.77633C2.2752 0.823446 2.12242 1.05262 2.16953 1.28819C2.21665 1.52377 2.44582 1.67655 2.6814 1.62944L6.09382 0.946952L6.7763 4.35937C6.82342 4.59495 7.05259 4.74773 7.28816 4.70061C7.52374 4.6535 7.67652 4.42433 7.62941 4.18875L6.86161 0.349778ZM0.435059 9.43509L0.797 9.67638L6.797 0.676383L6.43506 0.435088L6.07312 0.193794L0.0731167 9.19379L0.435059 9.43509Z" fill="#00CE03"/>
</svg>
