<svg width="9" height="9" viewBox="0 0 9 9" fill="none" xmlns="http://www.w3.org/2000/svg">
<path d="M0.745396 0.130177C0.577048 -0.0412178 0.301633 -0.0436877 0.130238 0.12466C-0.0411568 0.293008 -0.0436267 0.568424 0.124721 0.739818L0.435059 0.434998L0.745396 0.130177ZM8.01079 8.58679C8.25102 8.58895 8.44752 8.39594 8.44967 8.15571L8.48478 4.24087C8.48694 4.00063 8.29394 3.80414 8.0537 3.80198C7.81347 3.79983 7.61697 3.99283 7.61482 4.23307L7.58361 7.71293L4.10375 7.68172C3.86352 7.67956 3.66702 7.87257 3.66487 8.1128C3.66271 8.35303 3.85571 8.54953 4.09595 8.55168L8.01079 8.58679ZM0.435059 0.434998L0.124721 0.739818L7.70435 8.45663L8.01469 8.15181L8.32503 7.84699L0.745396 0.130177L0.435059 0.434998Z" fill="#DD120F"/>
</svg>
