<svg width="48" height="48" viewBox="0 0 48 48" fill="none" xmlns="http://www.w3.org/2000/svg">
<rect width="48" height="48" rx="8" fill="#E2BCFF"/>
<g clip-path="url(#clip0_20_295)">
<path d="M35.8549 18.353L21.9719 32.353C21.5529 32.771 20.9989 33 20.4099 33C19.8209 33 19.2659 32.771 18.8489 32.354L12.1519 25.859C11.9539 25.667 11.9489 25.35 12.1399 25.152C12.3339 24.954 12.6499 24.949 12.8469 25.14L19.5499 31.64C20.0189 32.107 20.8059 32.101 21.2629 31.646L35.1449 17.647C35.3399 17.453 35.6559 17.45 35.8529 17.644C36.0479 17.839 36.0499 18.156 35.8559 18.352L35.8549 18.353Z" fill="#9100FF"/>
</g>
<defs>
<clipPath id="clip0_20_295">
<rect width="24" height="24" fill="white" transform="translate(12 12)"/>
</clipPath>
</defs>
</svg>
