<svg width="588" height="82" viewBox="0 0 588 82" fill="none" xmlns="http://www.w3.org/2000/svg">
<path d="M24.1875 22.3828H25.6875C25.6094 23.1016 25.4036 23.7448 25.0703 24.3125C24.737 24.8802 24.2656 25.3307 23.6562 25.6641C23.0469 25.9922 22.2865 26.1562 21.375 26.1562C20.7083 26.1562 20.1016 26.0312 19.5547 25.7812C19.013 25.5312 18.5469 25.1771 18.1562 24.7188C17.7656 24.2552 17.4635 23.7005 17.25 23.0547C17.0417 22.4036 16.9375 21.6797 16.9375 20.8828V19.75C16.9375 18.9531 17.0417 18.2318 17.25 17.5859C17.4635 16.9349 17.7682 16.3776 18.1641 15.9141C18.5651 15.4505 19.0469 15.0938 19.6094 14.8438C20.1719 14.5938 20.8047 14.4688 21.5078 14.4688C22.3672 14.4688 23.0938 14.6302 23.6875 14.9531C24.2812 15.276 24.7422 15.724 25.0703 16.2969C25.4036 16.8646 25.6094 17.5234 25.6875 18.2734H24.1875C24.1146 17.7422 23.9792 17.2865 23.7812 16.9062C23.5833 16.5208 23.3021 16.224 22.9375 16.0156C22.5729 15.8073 22.0964 15.7031 21.5078 15.7031C21.0026 15.7031 20.5573 15.7995 20.1719 15.9922C19.7917 16.1849 19.4714 16.4583 19.2109 16.8125C18.9557 17.1667 18.763 17.5911 18.6328 18.0859C18.5026 18.5807 18.4375 19.1302 18.4375 19.7344V20.8828C18.4375 21.4401 18.4948 21.9635 18.6094 22.4531C18.7292 22.9427 18.9089 23.3724 19.1484 23.7422C19.388 24.112 19.6927 24.4036 20.0625 24.6172C20.4323 24.8255 20.8698 24.9297 21.375 24.9297C22.0156 24.9297 22.526 24.8281 22.9062 24.625C23.2865 24.4219 23.5729 24.1302 23.7656 23.75C23.9635 23.3698 24.1042 22.9141 24.1875 22.3828ZM27.1406 21.8672V21.6875C27.1406 21.0781 27.2292 20.513 27.4062 19.9922C27.5833 19.4661 27.8385 19.0104 28.1719 18.625C28.5052 18.2344 28.9089 17.9323 29.3828 17.7188C29.8568 17.5 30.388 17.3906 30.9766 17.3906C31.5703 17.3906 32.1042 17.5 32.5781 17.7188C33.0573 17.9323 33.4635 18.2344 33.7969 18.625C34.1354 19.0104 34.3932 19.4661 34.5703 19.9922C34.7474 20.513 34.8359 21.0781 34.8359 21.6875V21.8672C34.8359 22.4766 34.7474 23.0417 34.5703 23.5625C34.3932 24.0833 34.1354 24.5391 33.7969 24.9297C33.4635 25.3151 33.0599 25.6172 32.5859 25.8359C32.1172 26.0495 31.5859 26.1562 30.9922 26.1562C30.3984 26.1562 29.8646 26.0495 29.3906 25.8359C28.9167 25.6172 28.5104 25.3151 28.1719 24.9297C27.8385 24.5391 27.5833 24.0833 27.4062 23.5625C27.2292 23.0417 27.1406 22.4766 27.1406 21.8672ZM28.5859 21.6875V21.8672C28.5859 22.2891 28.6354 22.6875 28.7344 23.0625C28.8333 23.4323 28.9818 23.7604 29.1797 24.0469C29.3828 24.3333 29.6354 24.5599 29.9375 24.7266C30.2396 24.888 30.5911 24.9688 30.9922 24.9688C31.388 24.9688 31.7344 24.888 32.0312 24.7266C32.3333 24.5599 32.5833 24.3333 32.7812 24.0469C32.9792 23.7604 33.1276 23.4323 33.2266 23.0625C33.3307 22.6875 33.3828 22.2891 33.3828 21.8672V21.6875C33.3828 21.2708 33.3307 20.8776 33.2266 20.5078C33.1276 20.1328 32.9766 19.8021 32.7734 19.5156C32.5755 19.224 32.3255 18.9948 32.0234 18.8281C31.7266 18.6615 31.3776 18.5781 30.9766 18.5781C30.5807 18.5781 30.2318 18.6615 29.9297 18.8281C29.6328 18.9948 29.3828 19.224 29.1797 19.5156C28.9818 19.8021 28.8333 20.1328 28.7344 20.5078C28.6354 20.8776 28.5859 21.2708 28.5859 21.6875ZM38.0938 19.3516V26H36.6484V17.5469H38.0156L38.0938 19.3516ZM37.75 21.4531L37.1484 21.4297C37.1536 20.8516 37.2396 20.3177 37.4062 19.8281C37.5729 19.3333 37.8073 18.9036 38.1094 18.5391C38.4115 18.1745 38.7708 17.8932 39.1875 17.6953C39.6094 17.4922 40.0755 17.3906 40.5859 17.3906C41.0026 17.3906 41.3776 17.4479 41.7109 17.5625C42.0443 17.6719 42.3281 17.849 42.5625 18.0938C42.8021 18.3385 42.9844 18.6562 43.1094 19.0469C43.2344 19.4323 43.2969 19.9036 43.2969 20.4609V26H41.8438V20.4453C41.8438 20.0026 41.7786 19.6484 41.6484 19.3828C41.5182 19.112 41.3281 18.9167 41.0781 18.7969C40.8281 18.6719 40.5208 18.6094 40.1562 18.6094C39.7969 18.6094 39.4688 18.6849 39.1719 18.8359C38.8802 18.987 38.6276 19.1953 38.4141 19.4609C38.2057 19.7266 38.0417 20.0312 37.9219 20.375C37.8073 20.7135 37.75 21.0729 37.75 21.4531ZM49.0312 17.5469V18.6562H44.4609V17.5469H49.0312ZM46.0078 15.4922H47.4531V23.9062C47.4531 24.1927 47.4974 24.4089 47.5859 24.5547C47.6745 24.7005 47.7891 24.7969 47.9297 24.8438C48.0703 24.8906 48.2214 24.9141 48.3828 24.9141C48.5026 24.9141 48.6276 24.9036 48.7578 24.8828C48.8932 24.8568 48.9948 24.8359 49.0625 24.8203L49.0703 26C48.9557 26.0365 48.8047 26.0703 48.6172 26.1016C48.4349 26.138 48.2135 26.1562 47.9531 26.1562C47.599 26.1562 47.2734 26.0859 46.9766 25.9453C46.6797 25.8047 46.4427 25.5703 46.2656 25.2422C46.0938 24.9089 46.0078 24.4609 46.0078 23.8984V15.4922ZM55.7109 24.5547V20.2031C55.7109 19.8698 55.6432 19.5807 55.5078 19.3359C55.3776 19.0859 55.1797 18.8932 54.9141 18.7578C54.6484 18.6224 54.3203 18.5547 53.9297 18.5547C53.5651 18.5547 53.2448 18.6172 52.9688 18.7422C52.6979 18.8672 52.4844 19.0312 52.3281 19.2344C52.1771 19.4375 52.1016 19.6562 52.1016 19.8906H50.6562C50.6562 19.5885 50.7344 19.2891 50.8906 18.9922C51.0469 18.6953 51.2708 18.4271 51.5625 18.1875C51.8594 17.9427 52.2135 17.75 52.625 17.6094C53.0417 17.4635 53.5052 17.3906 54.0156 17.3906C54.6302 17.3906 55.1719 17.4948 55.6406 17.7031C56.1146 17.9115 56.4844 18.2266 56.75 18.6484C57.0208 19.0651 57.1562 19.5885 57.1562 20.2188V24.1562C57.1562 24.4375 57.1797 24.737 57.2266 25.0547C57.2786 25.3724 57.3542 25.6458 57.4531 25.875V26H55.9453C55.8724 25.8333 55.8151 25.612 55.7734 25.3359C55.7318 25.0547 55.7109 24.7943 55.7109 24.5547ZM55.9609 20.875L55.9766 21.8906H54.5156C54.1042 21.8906 53.737 21.9245 53.4141 21.9922C53.0911 22.0547 52.8203 22.151 52.6016 22.2812C52.3828 22.4115 52.2161 22.5755 52.1016 22.7734C51.987 22.9661 51.9297 23.1927 51.9297 23.4531C51.9297 23.7188 51.9896 23.9609 52.1094 24.1797C52.2292 24.3984 52.4089 24.5729 52.6484 24.7031C52.8932 24.8281 53.1927 24.8906 53.5469 24.8906C53.9896 24.8906 54.3802 24.7969 54.7188 24.6094C55.0573 24.4219 55.3255 24.1927 55.5234 23.9219C55.7266 23.651 55.8359 23.388 55.8516 23.1328L56.4688 23.8281C56.4323 24.0469 56.3333 24.2891 56.1719 24.5547C56.0104 24.8203 55.7943 25.0755 55.5234 25.3203C55.2578 25.5599 54.9401 25.7604 54.5703 25.9219C54.2057 26.0781 53.7943 26.1562 53.3359 26.1562C52.763 26.1562 52.2604 26.0443 51.8281 25.8203C51.401 25.5964 51.0677 25.2969 50.8281 24.9219C50.5938 24.5417 50.4766 24.1172 50.4766 23.6484C50.4766 23.1953 50.5651 22.7969 50.7422 22.4531C50.9193 22.1042 51.1745 21.8151 51.5078 21.5859C51.8411 21.3516 52.2422 21.1745 52.7109 21.0547C53.1797 20.9349 53.7031 20.875 54.2812 20.875H55.9609ZM62.8125 24.9688C63.1562 24.9688 63.474 24.8984 63.7656 24.7578C64.0573 24.6172 64.2969 24.4245 64.4844 24.1797C64.6719 23.9297 64.7786 23.6458 64.8047 23.3281H66.1797C66.1536 23.8281 65.9844 24.2943 65.6719 24.7266C65.3646 25.1536 64.9609 25.5 64.4609 25.7656C63.9609 26.026 63.4115 26.1562 62.8125 26.1562C62.1771 26.1562 61.6224 26.0443 61.1484 25.8203C60.6797 25.5964 60.2891 25.2891 59.9766 24.8984C59.6693 24.5078 59.4375 24.0599 59.2812 23.5547C59.1302 23.0443 59.0547 22.5052 59.0547 21.9375V21.6094C59.0547 21.0417 59.1302 20.5052 59.2812 20C59.4375 19.4896 59.6693 19.0391 59.9766 18.6484C60.2891 18.2578 60.6797 17.9505 61.1484 17.7266C61.6224 17.5026 62.1771 17.3906 62.8125 17.3906C63.474 17.3906 64.0521 17.526 64.5469 17.7969C65.0417 18.0625 65.4297 18.4271 65.7109 18.8906C65.9974 19.349 66.1536 19.8698 66.1797 20.4531H64.8047C64.7786 20.1042 64.6797 19.7891 64.5078 19.5078C64.3411 19.2266 64.112 19.0026 63.8203 18.8359C63.5339 18.6641 63.1979 18.5781 62.8125 18.5781C62.3698 18.5781 61.9974 18.6667 61.6953 18.8438C61.3984 19.0156 61.1615 19.25 60.9844 19.5469C60.8125 19.8385 60.6875 20.1641 60.6094 20.5234C60.5365 20.8776 60.5 21.2396 60.5 21.6094V21.9375C60.5 22.3073 60.5365 22.6719 60.6094 23.0312C60.6823 23.3906 60.8047 23.7161 60.9766 24.0078C61.1536 24.2995 61.3906 24.5339 61.6875 24.7109C61.9896 24.8828 62.3646 24.9688 62.8125 24.9688ZM71.3438 17.5469V18.6562H66.7734V17.5469H71.3438ZM68.3203 15.4922H69.7656V23.9062C69.7656 24.1927 69.8099 24.4089 69.8984 24.5547C69.987 24.7005 70.1016 24.7969 70.2422 24.8438C70.3828 24.8906 70.5339 24.9141 70.6953 24.9141C70.8151 24.9141 70.9401 24.9036 71.0703 24.8828C71.2057 24.8568 71.3073 24.8359 71.375 24.8203L71.3828 26C71.2682 26.0365 71.1172 26.0703 70.9297 26.1016C70.7474 26.138 70.526 26.1562 70.2656 26.1562C69.9115 26.1562 69.5859 26.0859 69.2891 25.9453C68.9922 25.8047 68.7552 25.5703 68.5781 25.2422C68.4062 24.9089 68.3203 24.4609 68.3203 23.8984V15.4922ZM80.8984 24.2734L84.25 14.625H85.8828L81.6719 26H80.5078L80.8984 24.2734ZM77.7656 14.625L81.0859 24.2734L81.5 26H80.3359L76.1328 14.625H77.7656ZM90.3594 26.1562C89.7708 26.1562 89.237 26.0573 88.7578 25.8594C88.2839 25.6562 87.875 25.3724 87.5312 25.0078C87.1927 24.6432 86.9323 24.2109 86.75 23.7109C86.5677 23.2109 86.4766 22.6641 86.4766 22.0703V21.7422C86.4766 21.0547 86.5781 20.4427 86.7812 19.9062C86.9844 19.3646 87.2604 18.9062 87.6094 18.5312C87.9583 18.1562 88.3542 17.8724 88.7969 17.6797C89.2396 17.487 89.6979 17.3906 90.1719 17.3906C90.776 17.3906 91.2969 17.4948 91.7344 17.7031C92.1771 17.9115 92.5391 18.2031 92.8203 18.5781C93.1016 18.9479 93.3099 19.3854 93.4453 19.8906C93.5807 20.3906 93.6484 20.9375 93.6484 21.5312V22.1797H87.3359V21H92.2031V20.8906C92.1823 20.5156 92.1042 20.151 91.9688 19.7969C91.8385 19.4427 91.6302 19.151 91.3438 18.9219C91.0573 18.6927 90.6667 18.5781 90.1719 18.5781C89.8438 18.5781 89.5417 18.6484 89.2656 18.7891C88.9896 18.9245 88.7526 19.1276 88.5547 19.3984C88.3568 19.6693 88.2031 20 88.0938 20.3906C87.9844 20.7812 87.9297 21.2318 87.9297 21.7422V22.0703C87.9297 22.4714 87.9844 22.849 88.0938 23.2031C88.2083 23.5521 88.3724 23.8594 88.5859 24.125C88.8047 24.3906 89.0677 24.599 89.375 24.75C89.6875 24.901 90.0417 24.9766 90.4375 24.9766C90.9479 24.9766 91.3802 24.8724 91.7344 24.6641C92.0885 24.4557 92.3984 24.1771 92.6641 23.8281L93.5391 24.5234C93.3568 24.7995 93.125 25.0625 92.8438 25.3125C92.5625 25.5625 92.2161 25.7656 91.8047 25.9219C91.3984 26.0781 90.9167 26.1562 90.3594 26.1562ZM96.7812 18.875V26H95.3359V17.5469H96.7422L96.7812 18.875ZM99.4219 17.5L99.4141 18.8438C99.2943 18.8177 99.1797 18.8021 99.0703 18.7969C98.9661 18.7865 98.8464 18.7812 98.7109 18.7812C98.3776 18.7812 98.0833 18.8333 97.8281 18.9375C97.5729 19.0417 97.3568 19.1875 97.1797 19.375C97.0026 19.5625 96.862 19.7865 96.7578 20.0469C96.6589 20.3021 96.5938 20.5833 96.5625 20.8906L96.1562 21.125C96.1562 20.6146 96.2057 20.1354 96.3047 19.6875C96.4089 19.2396 96.5677 18.8438 96.7812 18.5C96.9948 18.151 97.2656 17.8802 97.5938 17.6875C97.9271 17.4896 98.3229 17.3906 98.7812 17.3906C98.8854 17.3906 99.0052 17.4036 99.1406 17.4297C99.276 17.4505 99.3698 17.474 99.4219 17.5ZM102.328 17.5469V26H100.875V17.5469H102.328ZM100.766 15.3047C100.766 15.0703 100.836 14.8724 100.977 14.7109C101.122 14.5495 101.336 14.4688 101.617 14.4688C101.893 14.4688 102.104 14.5495 102.25 14.7109C102.401 14.8724 102.477 15.0703 102.477 15.3047C102.477 15.5286 102.401 15.7214 102.25 15.8828C102.104 16.0391 101.893 16.1172 101.617 16.1172C101.336 16.1172 101.122 16.0391 100.977 15.8828C100.836 15.7214 100.766 15.5286 100.766 15.3047ZM106.578 26H105.133V16.8125C105.133 16.1719 105.258 15.6302 105.508 15.1875C105.758 14.7448 106.115 14.4089 106.578 14.1797C107.042 13.9505 107.591 13.8359 108.227 13.8359C108.602 13.8359 108.969 13.8828 109.328 13.9766C109.688 14.0651 110.057 14.1771 110.438 14.3125L110.195 15.5312C109.956 15.4375 109.677 15.349 109.359 15.2656C109.047 15.1771 108.703 15.1328 108.328 15.1328C107.708 15.1328 107.26 15.2734 106.984 15.5547C106.714 15.8307 106.578 16.25 106.578 16.8125V26ZM108.305 17.5469V18.6562H103.797V17.5469H108.305ZM111.148 17.5469V26H109.703V17.5469H111.148ZM116.906 24.9688C117.25 24.9688 117.568 24.8984 117.859 24.7578C118.151 24.6172 118.391 24.4245 118.578 24.1797C118.766 23.9297 118.872 23.6458 118.898 23.3281H120.273C120.247 23.8281 120.078 24.2943 119.766 24.7266C119.458 25.1536 119.055 25.5 118.555 25.7656C118.055 26.026 117.505 26.1562 116.906 26.1562C116.271 26.1562 115.716 26.0443 115.242 25.8203C114.773 25.5964 114.383 25.2891 114.07 24.8984C113.763 24.5078 113.531 24.0599 113.375 23.5547C113.224 23.0443 113.148 22.5052 113.148 21.9375V21.6094C113.148 21.0417 113.224 20.5052 113.375 20C113.531 19.4896 113.763 19.0391 114.07 18.6484C114.383 18.2578 114.773 17.9505 115.242 17.7266C115.716 17.5026 116.271 17.3906 116.906 17.3906C117.568 17.3906 118.146 17.526 118.641 17.7969C119.135 18.0625 119.523 18.4271 119.805 18.8906C120.091 19.349 120.247 19.8698 120.273 20.4531H118.898C118.872 20.1042 118.773 19.7891 118.602 19.5078C118.435 19.2266 118.206 19.0026 117.914 18.8359C117.628 18.6641 117.292 18.5781 116.906 18.5781C116.464 18.5781 116.091 18.6667 115.789 18.8438C115.492 19.0156 115.255 19.25 115.078 19.5469C114.906 19.8385 114.781 20.1641 114.703 20.5234C114.63 20.8776 114.594 21.2396 114.594 21.6094V21.9375C114.594 22.3073 114.63 22.6719 114.703 23.0312C114.776 23.3906 114.898 23.7161 115.07 24.0078C115.247 24.2995 115.484 24.5339 115.781 24.7109C116.083 24.8828 116.458 24.9688 116.906 24.9688ZM126.883 24.5547V20.2031C126.883 19.8698 126.815 19.5807 126.68 19.3359C126.549 19.0859 126.352 18.8932 126.086 18.7578C125.82 18.6224 125.492 18.5547 125.102 18.5547C124.737 18.5547 124.417 18.6172 124.141 18.7422C123.87 18.8672 123.656 19.0312 123.5 19.2344C123.349 19.4375 123.273 19.6562 123.273 19.8906H121.828C121.828 19.5885 121.906 19.2891 122.062 18.9922C122.219 18.6953 122.443 18.4271 122.734 18.1875C123.031 17.9427 123.385 17.75 123.797 17.6094C124.214 17.4635 124.677 17.3906 125.188 17.3906C125.802 17.3906 126.344 17.4948 126.812 17.7031C127.286 17.9115 127.656 18.2266 127.922 18.6484C128.193 19.0651 128.328 19.5885 128.328 20.2188V24.1562C128.328 24.4375 128.352 24.737 128.398 25.0547C128.451 25.3724 128.526 25.6458 128.625 25.875V26H127.117C127.044 25.8333 126.987 25.612 126.945 25.3359C126.904 25.0547 126.883 24.7943 126.883 24.5547ZM127.133 20.875L127.148 21.8906H125.688C125.276 21.8906 124.909 21.9245 124.586 21.9922C124.263 22.0547 123.992 22.151 123.773 22.2812C123.555 22.4115 123.388 22.5755 123.273 22.7734C123.159 22.9661 123.102 23.1927 123.102 23.4531C123.102 23.7188 123.161 23.9609 123.281 24.1797C123.401 24.3984 123.581 24.5729 123.82 24.7031C124.065 24.8281 124.365 24.8906 124.719 24.8906C125.161 24.8906 125.552 24.7969 125.891 24.6094C126.229 24.4219 126.497 24.1927 126.695 23.9219C126.898 23.651 127.008 23.388 127.023 23.1328L127.641 23.8281C127.604 24.0469 127.505 24.2891 127.344 24.5547C127.182 24.8203 126.966 25.0755 126.695 25.3203C126.43 25.5599 126.112 25.7604 125.742 25.9219C125.378 26.0781 124.966 26.1562 124.508 26.1562C123.935 26.1562 123.432 26.0443 123 25.8203C122.573 25.5964 122.24 25.2969 122 24.9219C121.766 24.5417 121.648 24.1172 121.648 23.6484C121.648 23.1953 121.737 22.7969 121.914 22.4531C122.091 22.1042 122.346 21.8151 122.68 21.5859C123.013 21.3516 123.414 21.1745 123.883 21.0547C124.352 20.9349 124.875 20.875 125.453 20.875H127.133ZM134.141 17.5469V18.6562H129.57V17.5469H134.141ZM131.117 15.4922H132.562V23.9062C132.562 24.1927 132.607 24.4089 132.695 24.5547C132.784 24.7005 132.898 24.7969 133.039 24.8438C133.18 24.8906 133.331 24.9141 133.492 24.9141C133.612 24.9141 133.737 24.9036 133.867 24.8828C134.003 24.8568 134.104 24.8359 134.172 24.8203L134.18 26C134.065 26.0365 133.914 26.0703 133.727 26.1016C133.544 26.138 133.323 26.1562 133.062 26.1562C132.708 26.1562 132.383 26.0859 132.086 25.9453C131.789 25.8047 131.552 25.5703 131.375 25.2422C131.203 24.9089 131.117 24.4609 131.117 23.8984V15.4922ZM137.406 17.5469V26H135.953V17.5469H137.406ZM135.844 15.3047C135.844 15.0703 135.914 14.8724 136.055 14.7109C136.201 14.5495 136.414 14.4688 136.695 14.4688C136.971 14.4688 137.182 14.5495 137.328 14.7109C137.479 14.8724 137.555 15.0703 137.555 15.3047C137.555 15.5286 137.479 15.7214 137.328 15.8828C137.182 16.0391 136.971 16.1172 136.695 16.1172C136.414 16.1172 136.201 16.0391 136.055 15.8828C135.914 15.7214 135.844 15.5286 135.844 15.3047ZM139.344 21.8672V21.6875C139.344 21.0781 139.432 20.513 139.609 19.9922C139.786 19.4661 140.042 19.0104 140.375 18.625C140.708 18.2344 141.112 17.9323 141.586 17.7188C142.06 17.5 142.591 17.3906 143.18 17.3906C143.773 17.3906 144.307 17.5 144.781 17.7188C145.26 17.9323 145.667 18.2344 146 18.625C146.339 19.0104 146.596 19.4661 146.773 19.9922C146.951 20.513 147.039 21.0781 147.039 21.6875V21.8672C147.039 22.4766 146.951 23.0417 146.773 23.5625C146.596 24.0833 146.339 24.5391 146 24.9297C145.667 25.3151 145.263 25.6172 144.789 25.8359C144.32 26.0495 143.789 26.1562 143.195 26.1562C142.602 26.1562 142.068 26.0495 141.594 25.8359C141.12 25.6172 140.714 25.3151 140.375 24.9297C140.042 24.5391 139.786 24.0833 139.609 23.5625C139.432 23.0417 139.344 22.4766 139.344 21.8672ZM140.789 21.6875V21.8672C140.789 22.2891 140.839 22.6875 140.938 23.0625C141.036 23.4323 141.185 23.7604 141.383 24.0469C141.586 24.3333 141.839 24.5599 142.141 24.7266C142.443 24.888 142.794 24.9688 143.195 24.9688C143.591 24.9688 143.938 24.888 144.234 24.7266C144.536 24.5599 144.786 24.3333 144.984 24.0469C145.182 23.7604 145.331 23.4323 145.43 23.0625C145.534 22.6875 145.586 22.2891 145.586 21.8672V21.6875C145.586 21.2708 145.534 20.8776 145.43 20.5078C145.331 20.1328 145.18 19.8021 144.977 19.5156C144.779 19.224 144.529 18.9948 144.227 18.8281C143.93 18.6615 143.581 18.5781 143.18 18.5781C142.784 18.5781 142.435 18.6615 142.133 18.8281C141.836 18.9948 141.586 19.224 141.383 19.5156C141.185 19.8021 141.036 20.1328 140.938 20.5078C140.839 20.8776 140.789 21.2708 140.789 21.6875ZM150.297 19.3516V26H148.852V17.5469H150.219L150.297 19.3516ZM149.953 21.4531L149.352 21.4297C149.357 20.8516 149.443 20.3177 149.609 19.8281C149.776 19.3333 150.01 18.9036 150.312 18.5391C150.615 18.1745 150.974 17.8932 151.391 17.6953C151.812 17.4922 152.279 17.3906 152.789 17.3906C153.206 17.3906 153.581 17.4479 153.914 17.5625C154.247 17.6719 154.531 17.849 154.766 18.0938C155.005 18.3385 155.188 18.6562 155.312 19.0469C155.438 19.4323 155.5 19.9036 155.5 20.4609V26H154.047V20.4453C154.047 20.0026 153.982 19.6484 153.852 19.3828C153.721 19.112 153.531 18.9167 153.281 18.7969C153.031 18.6719 152.724 18.6094 152.359 18.6094C152 18.6094 151.672 18.6849 151.375 18.8359C151.083 18.987 150.831 19.1953 150.617 19.4609C150.409 19.7266 150.245 20.0312 150.125 20.375C150.01 20.7135 149.953 21.0729 149.953 21.4531Z" fill="black"/>
<path d="M28.544 52.928V64H27.088V55.744L23.408 64H22.384L18.688 55.728V64H17.232V52.928H18.8L22.896 62.08L26.992 52.928H28.544ZM34.8373 64.144C34.0159 64.144 33.2693 63.9573 32.5973 63.584C31.9359 63.2107 31.4133 62.6827 31.0293 62C30.6559 61.3067 30.4693 60.5067 30.4693 59.6C30.4693 58.704 30.6613 57.9147 31.0453 57.232C31.4399 56.5387 31.9733 56.0107 32.6453 55.648C33.3173 55.2747 34.0693 55.088 34.9013 55.088C35.7333 55.088 36.4853 55.2747 37.1573 55.648C37.8293 56.0107 38.3573 56.5333 38.7413 57.216C39.1359 57.8987 39.3333 58.6933 39.3333 59.6C39.3333 60.5067 39.1306 61.3067 38.7253 62C38.3306 62.6827 37.7919 63.2107 37.1093 63.584C36.4266 63.9573 35.6693 64.144 34.8373 64.144ZM34.8373 62.864C35.3599 62.864 35.8506 62.7413 36.3093 62.496C36.7679 62.2507 37.1359 61.8827 37.4133 61.392C37.7013 60.9013 37.8453 60.304 37.8453 59.6C37.8453 58.896 37.7066 58.2987 37.4293 57.808C37.1519 57.3173 36.7893 56.9547 36.3413 56.72C35.8933 56.4747 35.4079 56.352 34.8853 56.352C34.3519 56.352 33.8613 56.4747 33.4133 56.72C32.9759 56.9547 32.6239 57.3173 32.3573 57.808C32.0906 58.2987 31.9573 58.896 31.9573 59.6C31.9573 60.3147 32.0853 60.9173 32.3413 61.408C32.6079 61.8987 32.9599 62.2667 33.3973 62.512C33.8346 62.7467 34.3146 62.864 34.8373 62.864ZM42.7036 56.864C43.0023 56.3413 43.4396 55.9147 44.0156 55.584C44.5916 55.2533 45.2476 55.088 45.9836 55.088C46.773 55.088 47.4823 55.2747 48.1116 55.648C48.741 56.0213 49.237 56.5493 49.5996 57.232C49.9623 57.904 50.1436 58.688 50.1436 59.584C50.1436 60.4693 49.9623 61.2587 49.5996 61.952C49.237 62.6453 48.7356 63.184 48.0956 63.568C47.4663 63.952 46.7623 64.144 45.9836 64.144C45.2263 64.144 44.5596 63.9787 43.9836 63.648C43.4183 63.3173 42.9916 62.896 42.7036 62.384V64H41.2476V52.16H42.7036V56.864ZM48.6556 59.584C48.6556 58.9227 48.5223 58.3467 48.2556 57.856C47.989 57.3653 47.6263 56.992 47.1676 56.736C46.7196 56.48 46.2236 56.352 45.6796 56.352C45.1463 56.352 44.6503 56.4853 44.1916 56.752C43.7436 57.008 43.381 57.3867 43.1036 57.888C42.837 58.3787 42.7036 58.9493 42.7036 59.6C42.7036 60.2613 42.837 60.8427 43.1036 61.344C43.381 61.8347 43.7436 62.2133 44.1916 62.48C44.6503 62.736 45.1463 62.864 45.6796 62.864C46.2236 62.864 46.7196 62.736 47.1676 62.48C47.6263 62.2133 47.989 61.8347 48.2556 61.344C48.5223 60.8427 48.6556 60.256 48.6556 59.584ZM52.8121 53.808C52.5348 53.808 52.3001 53.712 52.1081 53.52C51.9161 53.328 51.8201 53.0933 51.8201 52.816C51.8201 52.5387 51.9161 52.304 52.1081 52.112C52.3001 51.92 52.5348 51.824 52.8121 51.824C53.0788 51.824 53.3028 51.92 53.4841 52.112C53.6761 52.304 53.7721 52.5387 53.7721 52.816C53.7721 53.0933 53.6761 53.328 53.4841 53.52C53.3028 53.712 53.0788 53.808 52.8121 53.808ZM53.5161 55.232V64H52.0601V55.232H53.5161ZM57.4536 52.16V64H55.9976V52.16H57.4536ZM67.9351 59.28C67.9351 59.5573 67.9191 59.8507 67.8871 60.16H60.8791C60.9325 61.024 61.2258 61.7013 61.7591 62.192C62.3031 62.672 62.9591 62.912 63.7271 62.912C64.3565 62.912 64.8791 62.768 65.2951 62.48C65.7218 62.1813 66.0205 61.7867 66.1911 61.296H67.7591C67.5245 62.1387 67.0551 62.8267 66.3511 63.36C65.6471 63.8827 64.7725 64.144 63.7271 64.144C62.8951 64.144 62.1485 63.9573 61.4871 63.584C60.8365 63.2107 60.3245 62.6827 59.9511 62C59.5778 61.3067 59.3911 60.5067 59.3911 59.6C59.3911 58.6933 59.5725 57.8987 59.9351 57.216C60.2978 56.5333 60.8045 56.0107 61.4551 55.648C62.1165 55.2747 62.8738 55.088 63.7271 55.088C64.5591 55.088 65.2951 55.2693 65.9351 55.632C66.5751 55.9947 67.0658 56.496 67.4071 57.136C67.7591 57.7653 67.9351 58.48 67.9351 59.28ZM66.4311 58.976C66.4311 58.4213 66.3085 57.9467 66.0631 57.552C65.8178 57.1467 65.4818 56.8427 65.0551 56.64C64.6391 56.4267 64.1751 56.32 63.6631 56.32C62.9271 56.32 62.2978 56.5547 61.7751 57.024C61.2631 57.4933 60.9698 58.144 60.8951 58.976H66.4311ZM83.3386 52.848L79.1306 64H77.4506L73.2426 52.848H74.7946L78.2986 62.464L81.8026 52.848H83.3386ZM92.9351 59.28C92.9351 59.5573 92.9191 59.8507 92.8871 60.16H85.8791C85.9325 61.024 86.2258 61.7013 86.7591 62.192C87.3031 62.672 87.9591 62.912 88.7271 62.912C89.3565 62.912 89.8791 62.768 90.2951 62.48C90.7218 62.1813 91.0205 61.7867 91.1911 61.296H92.7591C92.5245 62.1387 92.0551 62.8267 91.3511 63.36C90.6471 63.8827 89.7725 64.144 88.7271 64.144C87.8951 64.144 87.1485 63.9573 86.4871 63.584C85.8365 63.2107 85.3245 62.6827 84.9511 62C84.5778 61.3067 84.3911 60.5067 84.3911 59.6C84.3911 58.6933 84.5725 57.8987 84.9351 57.216C85.2978 56.5333 85.8045 56.0107 86.4551 55.648C87.1165 55.2747 87.8738 55.088 88.7271 55.088C89.5591 55.088 90.2951 55.2693 90.9351 55.632C91.5751 55.9947 92.0658 56.496 92.4071 57.136C92.7591 57.7653 92.9351 58.48 92.9351 59.28ZM91.4311 58.976C91.4311 58.4213 91.3085 57.9467 91.0631 57.552C90.8178 57.1467 90.4818 56.8427 90.0551 56.64C89.6391 56.4267 89.1751 56.32 88.6631 56.32C87.9271 56.32 87.2978 56.5547 86.7751 57.024C86.2631 57.4933 85.9698 58.144 85.8951 58.976H91.4311ZM96.313 56.656C96.569 56.1547 96.9317 55.7653 97.401 55.488C97.881 55.2107 98.4623 55.072 99.145 55.072V56.576H98.761C97.129 56.576 96.313 57.4613 96.313 59.232V64H94.857V55.232H96.313V56.656ZM101.578 53.808C101.3 53.808 101.066 53.712 100.874 53.52C100.682 53.328 100.586 53.0933 100.586 52.816C100.586 52.5387 100.682 52.304 100.874 52.112C101.066 51.92 101.3 51.824 101.578 51.824C101.844 51.824 102.068 51.92 102.25 52.112C102.442 52.304 102.538 52.5387 102.538 52.816C102.538 53.0933 102.442 53.328 102.25 53.52C102.068 53.712 101.844 53.808 101.578 53.808ZM102.282 55.232V64H100.826V55.232H102.282ZM108.331 56.432H106.491V64H105.035V56.432H103.899V55.232H105.035V54.608C105.035 53.6267 105.286 52.912 105.787 52.464C106.299 52.0053 107.115 51.776 108.235 51.776V52.992C107.595 52.992 107.142 53.12 106.875 53.376C106.619 53.6213 106.491 54.032 106.491 54.608V55.232H108.331V56.432ZM110.781 53.808C110.504 53.808 110.269 53.712 110.077 53.52C109.885 53.328 109.789 53.0933 109.789 52.816C109.789 52.5387 109.885 52.304 110.077 52.112C110.269 51.92 110.504 51.824 110.781 51.824C111.048 51.824 111.272 51.92 111.453 52.112C111.645 52.304 111.741 52.5387 111.741 52.816C111.741 53.0933 111.645 53.328 111.453 53.52C111.272 53.712 111.048 53.808 110.781 53.808ZM111.485 55.232V64H110.029V55.232H111.485ZM121.966 59.28C121.966 59.5573 121.95 59.8507 121.918 60.16H114.91C114.964 61.024 115.257 61.7013 115.79 62.192C116.334 62.672 116.99 62.912 117.758 62.912C118.388 62.912 118.91 62.768 119.326 62.48C119.753 62.1813 120.052 61.7867 120.222 61.296H121.79C121.556 62.1387 121.086 62.8267 120.382 63.36C119.678 63.8827 118.804 64.144 117.758 64.144C116.926 64.144 116.18 63.9573 115.518 63.584C114.868 63.2107 114.356 62.6827 113.982 62C113.609 61.3067 113.422 60.5067 113.422 59.6C113.422 58.6933 113.604 57.8987 113.966 57.216C114.329 56.5333 114.836 56.0107 115.486 55.648C116.148 55.2747 116.905 55.088 117.758 55.088C118.59 55.088 119.326 55.2693 119.966 55.632C120.606 55.9947 121.097 56.496 121.438 57.136C121.79 57.7653 121.966 58.48 121.966 59.28ZM120.462 58.976C120.462 58.4213 120.34 57.9467 120.094 57.552C119.849 57.1467 119.513 56.8427 119.086 56.64C118.67 56.4267 118.206 56.32 117.694 56.32C116.958 56.32 116.329 56.5547 115.806 57.024C115.294 57.4933 115.001 58.144 114.926 58.976H120.462ZM123.344 59.584C123.344 58.688 123.526 57.904 123.888 57.232C124.251 56.5493 124.747 56.0213 125.376 55.648C126.016 55.2747 126.731 55.088 127.52 55.088C128.203 55.088 128.838 55.248 129.424 55.568C130.011 55.8773 130.459 56.288 130.768 56.8V52.16H132.24V64H130.768V62.352C130.48 62.8747 130.054 63.3067 129.488 63.648C128.923 63.9787 128.262 64.144 127.504 64.144C126.726 64.144 126.016 63.952 125.376 63.568C124.747 63.184 124.251 62.6453 123.888 61.952C123.526 61.2587 123.344 60.4693 123.344 59.584ZM130.768 59.6C130.768 58.9387 130.635 58.3627 130.368 57.872C130.102 57.3813 129.739 57.008 129.28 56.752C128.832 56.4853 128.336 56.352 127.792 56.352C127.248 56.352 126.752 56.48 126.304 56.736C125.856 56.992 125.499 57.3653 125.232 57.856C124.966 58.3467 124.832 58.9227 124.832 59.584C124.832 60.256 124.966 60.8427 125.232 61.344C125.499 61.8347 125.856 62.2133 126.304 62.48C126.752 62.736 127.248 62.864 127.792 62.864C128.336 62.864 128.832 62.736 129.28 62.48C129.739 62.2133 130.102 61.8347 130.368 61.344C130.635 60.8427 130.768 60.2613 130.768 59.6Z" fill="#020202"/>
<rect x="140.5" y="43.5" width="66" height="29" rx="14.5" fill="white"/>
<rect x="140.5" y="43.5" width="66" height="29" rx="14.5" stroke="#0ACA57"/>
<circle cx="156" cy="58" r="11" fill="#0ACA57"/>
<path d="M220.688 62.816H224.592V64H219.232V52.848H220.688V62.816ZM234.138 59.28C234.138 59.5573 234.122 59.8507 234.09 60.16H227.082C227.136 61.024 227.429 61.7013 227.962 62.192C228.506 62.672 229.162 62.912 229.93 62.912C230.56 62.912 231.082 62.768 231.498 62.48C231.925 62.1813 232.224 61.7867 232.394 61.296H233.962C233.728 62.1387 233.258 62.8267 232.554 63.36C231.85 63.8827 230.976 64.144 229.93 64.144C229.098 64.144 228.352 63.9573 227.69 63.584C227.04 63.2107 226.528 62.6827 226.154 62C225.781 61.3067 225.594 60.5067 225.594 59.6C225.594 58.6933 225.776 57.8987 226.138 57.216C226.501 56.5333 227.008 56.0107 227.658 55.648C228.32 55.2747 229.077 55.088 229.93 55.088C230.762 55.088 231.498 55.2693 232.138 55.632C232.778 55.9947 233.269 56.496 233.61 57.136C233.962 57.7653 234.138 58.48 234.138 59.28ZM232.634 58.976C232.634 58.4213 232.512 57.9467 232.266 57.552C232.021 57.1467 231.685 56.8427 231.258 56.64C230.842 56.4267 230.378 56.32 229.866 56.32C229.13 56.32 228.501 56.5547 227.978 57.024C227.466 57.4933 227.173 58.144 227.098 58.976H232.634ZM235.516 59.584C235.516 58.688 235.697 57.904 236.06 57.232C236.423 56.5493 236.919 56.0213 237.548 55.648C238.188 55.2747 238.897 55.088 239.676 55.088C240.444 55.088 241.111 55.2533 241.676 55.584C242.241 55.9147 242.663 56.3307 242.94 56.832V55.232H244.412V64H242.94V62.368C242.652 62.88 242.22 63.3067 241.644 63.648C241.079 63.9787 240.417 64.144 239.66 64.144C238.881 64.144 238.177 63.952 237.548 63.568C236.919 63.184 236.423 62.6453 236.06 61.952C235.697 61.2587 235.516 60.4693 235.516 59.584ZM242.94 59.6C242.94 58.9387 242.807 58.3627 242.54 57.872C242.273 57.3813 241.911 57.008 241.452 56.752C241.004 56.4853 240.508 56.352 239.964 56.352C239.42 56.352 238.924 56.48 238.476 56.736C238.028 56.992 237.671 57.3653 237.404 57.856C237.137 58.3467 237.004 58.9227 237.004 59.584C237.004 60.256 237.137 60.8427 237.404 61.344C237.671 61.8347 238.028 62.2133 238.476 62.48C238.924 62.736 239.42 62.864 239.964 62.864C240.508 62.864 241.004 62.736 241.452 62.48C241.911 62.2133 242.273 61.8347 242.54 61.344C242.807 60.8427 242.94 60.2613 242.94 59.6ZM246.329 59.584C246.329 58.688 246.51 57.904 246.873 57.232C247.235 56.5493 247.731 56.0213 248.361 55.648C249.001 55.2747 249.715 55.088 250.505 55.088C251.187 55.088 251.822 55.248 252.409 55.568C252.995 55.8773 253.443 56.288 253.753 56.8V52.16H255.225V64H253.753V62.352C253.465 62.8747 253.038 63.3067 252.473 63.648C251.907 63.9787 251.246 64.144 250.489 64.144C249.71 64.144 249.001 63.952 248.361 63.568C247.731 63.184 247.235 62.6453 246.873 61.952C246.51 61.2587 246.329 60.4693 246.329 59.584ZM253.753 59.6C253.753 58.9387 253.619 58.3627 253.353 57.872C253.086 57.3813 252.723 57.008 252.265 56.752C251.817 56.4853 251.321 56.352 250.777 56.352C250.233 56.352 249.737 56.48 249.289 56.736C248.841 56.992 248.483 57.3653 248.217 57.856C247.95 58.3467 247.817 58.9227 247.817 59.584C247.817 60.256 247.95 60.8427 248.217 61.344C248.483 61.8347 248.841 62.2133 249.289 62.48C249.737 62.736 250.233 62.864 250.777 62.864C251.321 62.864 251.817 62.736 252.265 62.48C252.723 62.2133 253.086 61.8347 253.353 61.344C253.619 60.8427 253.753 60.2613 253.753 59.6ZM271.167 52.848L266.959 64H265.279L261.071 52.848H262.623L266.127 62.464L269.631 52.848H271.167ZM280.763 59.28C280.763 59.5573 280.747 59.8507 280.715 60.16H273.707C273.761 61.024 274.054 61.7013 274.587 62.192C275.131 62.672 275.787 62.912 276.555 62.912C277.185 62.912 277.707 62.768 278.123 62.48C278.55 62.1813 278.849 61.7867 279.019 61.296H280.587C280.353 62.1387 279.883 62.8267 279.179 63.36C278.475 63.8827 277.601 64.144 276.555 64.144C275.723 64.144 274.977 63.9573 274.315 63.584C273.665 63.2107 273.153 62.6827 272.779 62C272.406 61.3067 272.219 60.5067 272.219 59.6C272.219 58.6933 272.401 57.8987 272.763 57.216C273.126 56.5333 273.633 56.0107 274.283 55.648C274.945 55.2747 275.702 55.088 276.555 55.088C277.387 55.088 278.123 55.2693 278.763 55.632C279.403 55.9947 279.894 56.496 280.235 57.136C280.587 57.7653 280.763 58.48 280.763 59.28ZM279.259 58.976C279.259 58.4213 279.137 57.9467 278.891 57.552C278.646 57.1467 278.31 56.8427 277.883 56.64C277.467 56.4267 277.003 56.32 276.491 56.32C275.755 56.32 275.126 56.5547 274.603 57.024C274.091 57.4933 273.798 58.144 273.723 58.976H279.259ZM284.141 56.656C284.397 56.1547 284.76 55.7653 285.229 55.488C285.709 55.2107 286.29 55.072 286.973 55.072V56.576H286.589C284.957 56.576 284.141 57.4613 284.141 59.232V64H282.685V55.232H284.141V56.656ZM289.406 53.808C289.129 53.808 288.894 53.712 288.702 53.52C288.51 53.328 288.414 53.0933 288.414 52.816C288.414 52.5387 288.51 52.304 288.702 52.112C288.894 51.92 289.129 51.824 289.406 51.824C289.673 51.824 289.897 51.92 290.078 52.112C290.27 52.304 290.366 52.5387 290.366 52.816C290.366 53.0933 290.27 53.328 290.078 53.52C289.897 53.712 289.673 53.808 289.406 53.808ZM290.11 55.232V64H288.654V55.232H290.11ZM296.159 56.432H294.319V64H292.863V56.432H291.727V55.232H292.863V54.608C292.863 53.6267 293.114 52.912 293.615 52.464C294.127 52.0053 294.943 51.776 296.063 51.776V52.992C295.423 52.992 294.97 53.12 294.703 53.376C294.447 53.6213 294.319 54.032 294.319 54.608V55.232H296.159V56.432ZM298.609 53.808C298.332 53.808 298.097 53.712 297.905 53.52C297.713 53.328 297.617 53.0933 297.617 52.816C297.617 52.5387 297.713 52.304 297.905 52.112C298.097 51.92 298.332 51.824 298.609 51.824C298.876 51.824 299.1 51.92 299.281 52.112C299.473 52.304 299.569 52.5387 299.569 52.816C299.569 53.0933 299.473 53.328 299.281 53.52C299.1 53.712 298.876 53.808 298.609 53.808ZM299.313 55.232V64H297.857V55.232H299.313ZM309.795 59.28C309.795 59.5573 309.779 59.8507 309.747 60.16H302.739C302.792 61.024 303.085 61.7013 303.619 62.192C304.163 62.672 304.819 62.912 305.587 62.912C306.216 62.912 306.739 62.768 307.155 62.48C307.581 62.1813 307.88 61.7867 308.051 61.296H309.619C309.384 62.1387 308.915 62.8267 308.211 63.36C307.507 63.8827 306.632 64.144 305.587 64.144C304.755 64.144 304.008 63.9573 303.347 63.584C302.696 63.2107 302.184 62.6827 301.811 62C301.437 61.3067 301.251 60.5067 301.251 59.6C301.251 58.6933 301.432 57.8987 301.795 57.216C302.157 56.5333 302.664 56.0107 303.315 55.648C303.976 55.2747 304.733 55.088 305.587 55.088C306.419 55.088 307.155 55.2693 307.795 55.632C308.435 55.9947 308.925 56.496 309.267 57.136C309.619 57.7653 309.795 58.48 309.795 59.28ZM308.291 58.976C308.291 58.4213 308.168 57.9467 307.923 57.552C307.677 57.1467 307.341 56.8427 306.915 56.64C306.499 56.4267 306.035 56.32 305.523 56.32C304.787 56.32 304.157 56.5547 303.635 57.024C303.123 57.4933 302.829 58.144 302.755 58.976H308.291ZM311.172 59.584C311.172 58.688 311.354 57.904 311.716 57.232C312.079 56.5493 312.575 56.0213 313.204 55.648C313.844 55.2747 314.559 55.088 315.348 55.088C316.031 55.088 316.666 55.248 317.252 55.568C317.839 55.8773 318.287 56.288 318.596 56.8V52.16H320.068V64H318.596V62.352C318.308 62.8747 317.882 63.3067 317.316 63.648C316.751 63.9787 316.09 64.144 315.332 64.144C314.554 64.144 313.844 63.952 313.204 63.568C312.575 63.184 312.079 62.6453 311.716 61.952C311.354 61.2587 311.172 60.4693 311.172 59.584ZM318.596 59.6C318.596 58.9387 318.463 58.3627 318.196 57.872C317.93 57.3813 317.567 57.008 317.108 56.752C316.66 56.4853 316.164 56.352 315.62 56.352C315.076 56.352 314.58 56.48 314.132 56.736C313.684 56.992 313.327 57.3653 313.06 57.856C312.794 58.3467 312.66 58.9227 312.66 59.584C312.66 60.256 312.794 60.8427 313.06 61.344C313.327 61.8347 313.684 62.2133 314.132 62.48C314.58 62.736 315.076 62.864 315.62 62.864C316.164 62.864 316.66 62.736 317.108 62.48C317.567 62.2133 317.93 61.8347 318.196 61.344C318.463 60.8427 318.596 60.2613 318.596 59.6Z" fill="#020202"/>
<rect x="328.5" y="43.5" width="66" height="29" rx="14.5" fill="white"/>
<rect x="328.5" y="43.5" width="66" height="29" rx="14.5" stroke="#0ACA57"/>
<circle cx="344" cy="58" r="11" fill="#0ACA57"/>
<path d="M408.688 54.032V57.76H412.752V58.96H408.688V62.8H413.232V64H407.232V52.832H413.232V54.032H408.688ZM425.979 55.072C426.662 55.072 427.27 55.216 427.803 55.504C428.336 55.7813 428.758 56.2027 429.067 56.768C429.376 57.3333 429.531 58.0213 429.531 58.832V64H428.091V59.04C428.091 58.1653 427.872 57.4987 427.435 57.04C427.008 56.5707 426.427 56.336 425.691 56.336C424.934 56.336 424.331 56.5813 423.883 57.072C423.435 57.552 423.211 58.2507 423.211 59.168V64H421.771V59.04C421.771 58.1653 421.552 57.4987 421.115 57.04C420.688 56.5707 420.107 56.336 419.371 56.336C418.614 56.336 418.011 56.5813 417.563 57.072C417.115 57.552 416.891 58.2507 416.891 59.168V64H415.435V55.232H416.891V56.496C417.179 56.0373 417.563 55.6853 418.043 55.44C418.534 55.1947 419.072 55.072 419.659 55.072C420.395 55.072 421.046 55.2373 421.611 55.568C422.176 55.8987 422.598 56.384 422.875 57.024C423.12 56.4053 423.526 55.9253 424.091 55.584C424.656 55.2427 425.286 55.072 425.979 55.072ZM431.376 59.584C431.376 58.688 431.557 57.904 431.92 57.232C432.282 56.5493 432.778 56.0213 433.408 55.648C434.048 55.2747 434.757 55.088 435.536 55.088C436.304 55.088 436.97 55.2533 437.536 55.584C438.101 55.9147 438.522 56.3307 438.8 56.832V55.232H440.272V64H438.8V62.368C438.512 62.88 438.08 63.3067 437.504 63.648C436.938 63.9787 436.277 64.144 435.52 64.144C434.741 64.144 434.037 63.952 433.408 63.568C432.778 63.184 432.282 62.6453 431.92 61.952C431.557 61.2587 431.376 60.4693 431.376 59.584ZM438.8 59.6C438.8 58.9387 438.666 58.3627 438.4 57.872C438.133 57.3813 437.77 57.008 437.312 56.752C436.864 56.4853 436.368 56.352 435.824 56.352C435.28 56.352 434.784 56.48 434.336 56.736C433.888 56.992 433.53 57.3653 433.264 57.856C432.997 58.3467 432.864 58.9227 432.864 59.584C432.864 60.256 432.997 60.8427 433.264 61.344C433.53 61.8347 433.888 62.2133 434.336 62.48C434.784 62.736 435.28 62.864 435.824 62.864C436.368 62.864 436.864 62.736 437.312 62.48C437.77 62.2133 438.133 61.8347 438.4 61.344C438.666 60.8427 438.8 60.2613 438.8 59.6ZM443.484 53.808C443.207 53.808 442.972 53.712 442.78 53.52C442.588 53.328 442.492 53.0933 442.492 52.816C442.492 52.5387 442.588 52.304 442.78 52.112C442.972 51.92 443.207 51.824 443.484 51.824C443.751 51.824 443.975 51.92 444.156 52.112C444.348 52.304 444.444 52.5387 444.444 52.816C444.444 53.0933 444.348 53.328 444.156 53.52C443.975 53.712 443.751 53.808 443.484 53.808ZM444.188 55.232V64H442.732V55.232H444.188ZM448.126 52.16V64H446.67V52.16H448.126ZM464.089 52.848L459.881 64H458.201L453.993 52.848H455.545L459.049 62.464L462.553 52.848H464.089ZM465.141 59.584C465.141 58.688 465.322 57.904 465.685 57.232C466.048 56.5493 466.544 56.0213 467.173 55.648C467.813 55.2747 468.522 55.088 469.301 55.088C470.069 55.088 470.736 55.2533 471.301 55.584C471.866 55.9147 472.288 56.3307 472.565 56.832V55.232H474.037V64H472.565V62.368C472.277 62.88 471.845 63.3067 471.269 63.648C470.704 63.9787 470.042 64.144 469.285 64.144C468.506 64.144 467.802 63.952 467.173 63.568C466.544 63.184 466.048 62.6453 465.685 61.952C465.322 61.2587 465.141 60.4693 465.141 59.584ZM472.565 59.6C472.565 58.9387 472.432 58.3627 472.165 57.872C471.898 57.3813 471.536 57.008 471.077 56.752C470.629 56.4853 470.133 56.352 469.589 56.352C469.045 56.352 468.549 56.48 468.101 56.736C467.653 56.992 467.296 57.3653 467.029 57.856C466.762 58.3467 466.629 58.9227 466.629 59.584C466.629 60.256 466.762 60.8427 467.029 61.344C467.296 61.8347 467.653 62.2133 468.101 62.48C468.549 62.736 469.045 62.864 469.589 62.864C470.133 62.864 470.629 62.736 471.077 62.48C471.536 62.2133 471.898 61.8347 472.165 61.344C472.432 60.8427 472.565 60.2613 472.565 59.6ZM477.954 52.16V64H476.498V52.16H477.954ZM481.187 53.808C480.91 53.808 480.675 53.712 480.483 53.52C480.291 53.328 480.195 53.0933 480.195 52.816C480.195 52.5387 480.291 52.304 480.483 52.112C480.675 51.92 480.91 51.824 481.187 51.824C481.454 51.824 481.678 51.92 481.859 52.112C482.051 52.304 482.147 52.5387 482.147 52.816C482.147 53.0933 482.051 53.328 481.859 53.52C481.678 53.712 481.454 53.808 481.187 53.808ZM481.891 55.232V64H480.435V55.232H481.891ZM483.829 59.584C483.829 58.688 484.01 57.904 484.373 57.232C484.735 56.5493 485.231 56.0213 485.861 55.648C486.501 55.2747 487.215 55.088 488.005 55.088C488.687 55.088 489.322 55.248 489.909 55.568C490.495 55.8773 490.943 56.288 491.253 56.8V52.16H492.725V64H491.253V62.352C490.965 62.8747 490.538 63.3067 489.973 63.648C489.407 63.9787 488.746 64.144 487.989 64.144C487.21 64.144 486.501 63.952 485.861 63.568C485.231 63.184 484.735 62.6453 484.373 61.952C484.01 61.2587 483.829 60.4693 483.829 59.584ZM491.253 59.6C491.253 58.9387 491.119 58.3627 490.853 57.872C490.586 57.3813 490.223 57.008 489.765 56.752C489.317 56.4853 488.821 56.352 488.277 56.352C487.733 56.352 487.237 56.48 486.789 56.736C486.341 56.992 485.983 57.3653 485.717 57.856C485.45 58.3467 485.317 58.9227 485.317 59.584C485.317 60.256 485.45 60.8427 485.717 61.344C485.983 61.8347 486.341 62.2133 486.789 62.48C487.237 62.736 487.733 62.864 488.277 62.864C488.821 62.864 489.317 62.736 489.765 62.48C490.223 62.2133 490.586 61.8347 490.853 61.344C491.119 60.8427 491.253 60.2613 491.253 59.6Z" fill="#020202"/>
<rect x="505.5" y="43.5" width="66" height="29" rx="14.5" fill="white"/>
<rect x="505.5" y="43.5" width="66" height="29" rx="14.5" stroke="#0ACA57"/>
<circle cx="521" cy="58" r="11" fill="#0ACA57"/>
</svg>
