<svg width="22" height="23" viewBox="0 0 22 23" fill="none" xmlns="http://www.w3.org/2000/svg">
<path d="M16.7708 0H6.22917C4.35467 0 2.75617 1.20175 2.16296 2.875H0.479167C0.214667 2.875 0 3.08967 0 3.35417C0 3.61867 0.214667 3.83333 0.479167 3.83333H1.9435C1.92625 3.9905 1.91667 4.15054 1.91667 4.3125V6.70833H0.479167C0.214667 6.70833 0 6.923 0 7.1875C0 7.452 0.214667 7.66667 0.479167 7.66667H1.91667V11.0208H0.479167C0.214667 11.0208 0 11.2355 0 11.5C0 11.7645 0.214667 11.9792 0.479167 11.9792H1.91667V15.3333H0.479167C0.214667 15.3333 0 15.548 0 15.8125C0 16.077 0.214667 16.2917 0.479167 16.2917H1.91667V18.6875C1.91667 18.8495 1.92625 19.0095 1.9435 19.1667H0.479167C0.214667 19.1667 0 19.3813 0 19.6458C0 19.9103 0.214667 20.125 0.479167 20.125H2.16296C2.75617 21.7983 4.35467 23 6.22917 23H16.7708C19.1485 23 21.0833 21.0651 21.0833 18.6875V4.3125C21.0833 1.93488 19.1485 0 16.7708 0ZM20.125 18.6875C20.125 20.5371 18.6204 22.0417 16.7708 22.0417H6.22917C4.37958 22.0417 2.875 20.5371 2.875 18.6875V4.3125C2.875 2.46292 4.37958 0.958333 6.22917 0.958333H16.7708C18.6204 0.958333 20.125 2.46292 20.125 4.3125V18.6875ZM11.5 11.5C13.0851 11.5 14.375 10.2101 14.375 8.625C14.375 7.03992 13.0851 5.75 11.5 5.75C9.91492 5.75 8.625 7.03992 8.625 8.625C8.625 10.2101 9.91492 11.5 11.5 11.5ZM11.5 6.70833C12.557 6.70833 13.4167 7.56796 13.4167 8.625C13.4167 9.68204 12.557 10.5417 11.5 10.5417C10.443 10.5417 9.58333 9.68204 9.58333 8.625C9.58333 7.56796 10.443 6.70833 11.5 6.70833ZM16.2917 17.25V17.7292C16.2917 17.9937 16.077 18.2083 15.8125 18.2083C15.548 18.2083 15.3333 17.9937 15.3333 17.7292V17.25C15.3333 15.1359 13.6141 13.4167 11.5 13.4167C9.38592 13.4167 7.66667 15.1359 7.66667 17.25V17.7292C7.66667 17.9937 7.452 18.2083 7.1875 18.2083C6.923 18.2083 6.70833 17.9937 6.70833 17.7292V17.25C6.70833 14.6079 8.85788 12.4583 11.5 12.4583C14.1421 12.4583 16.2917 14.6079 16.2917 17.25Z" fill="#383838"/>
</svg>
