<svg width="21" height="21" viewBox="0 0 21 21" fill="none" xmlns="http://www.w3.org/2000/svg">
<g clip-path="url(#clip0_28_419)">
<path d="M21 14.4375V17.9375C21 19.6262 19.6262 21 17.9375 21H3.0625C1.37375 21 0 19.6262 0 17.9375V14.4375C0 14.196 0.196 14 0.4375 14C0.679 14 0.875 14.196 0.875 14.4375V17.9375C0.875 19.1441 1.85588 20.125 3.0625 20.125H17.9375C19.1441 20.125 20.125 19.1441 20.125 17.9375V14.4375C20.125 14.196 20.321 14 20.5625 14C20.804 14 21 14.196 21 14.4375ZM9.40362 16.1709C9.69588 16.4631 10.0852 16.625 10.4991 16.625C10.9121 16.625 11.3006 16.4631 11.5929 16.1709L15.6214 12.1214C15.7911 11.9507 15.7911 11.6725 15.6196 11.5028C15.449 11.3339 15.1716 11.3321 15.001 11.5045C15.001 11.5045 10.948 15.568 10.9358 15.5776V0.4375C10.9358 0.196 10.7397 0 10.4983 0C10.2568 0 10.0608 0.196 10.0608 0.4375V15.5794C10.0485 15.5689 5.9955 11.5045 5.9955 11.5045C5.82575 11.3321 5.54838 11.3339 5.37687 11.5028C5.20538 11.6725 5.20538 11.9499 5.37512 12.1214L9.40187 16.1718L9.40362 16.1709Z" fill="black"/>
</g>
<defs>
<clipPath id="clip0_28_419">
<rect width="21" height="21" fill="white"/>
</clipPath>
</defs>
</svg>
