<svg width="48" height="48" viewBox="0 0 48 48" fill="none" xmlns="http://www.w3.org/2000/svg">
<rect width="48" height="48" rx="8" fill="#FFBCBC"/>
<g clip-path="url(#clip0_24_335)">
<path d="M27.604 24.104L24.708 27L27.604 29.896C27.799 30.091 27.799 30.408 27.604 30.603C27.506 30.701 27.378 30.749 27.25 30.749C27.122 30.749 26.994 30.7 26.896 30.603L24 27.707L21.104 30.603C21.006 30.701 20.878 30.749 20.75 30.749C20.622 30.749 20.494 30.7 20.396 30.603C20.201 30.408 20.201 30.091 20.396 29.896L23.292 27L20.396 24.104C20.201 23.909 20.201 23.592 20.396 23.397C20.591 23.202 20.908 23.202 21.103 23.397L23.999 26.293L26.895 23.397C27.09 23.202 27.407 23.202 27.602 23.397C27.797 23.592 27.797 23.909 27.602 24.104H27.604ZM34 21.986V31.501C34 33.982 31.981 36.001 29.5 36.001H18.5C16.019 36.001 14 33.982 14 31.501V16.5C14 14.019 16.019 12 18.5 12H24.015C25.75 12 27.383 12.676 28.612 13.904L32.096 17.389C33.324 18.616 34 20.248 34 21.985V21.986ZM27.904 14.611C27.353 14.061 26.704 13.652 26 13.38V18.5C26 19.327 26.673 20 27.5 20H32.621C32.348 19.296 31.939 18.646 31.389 18.096L27.904 14.611ZM33 21.986C33 21.651 32.962 21.323 32.904 21.001H27.5C26.121 21.001 25 19.879 25 18.501V13.096C24.677 13.038 24.349 13 24.015 13H18.5C16.57 13 15 14.57 15 16.5V31.5C15 33.43 16.57 35 18.5 35H29.5C31.43 35 33 33.43 33 31.5V21.985V21.986Z" fill="#D30909"/>
</g>
<defs>
<clipPath id="clip0_24_335">
<rect width="24" height="24" fill="white" transform="translate(12 12)"/>
</clipPath>
</defs>
</svg>
