<svg width="100" height="100" viewBox="0 0 100 100" fill="none" xmlns="http://www.w3.org/2000/svg">
<rect width="100" height="100" rx="50" fill="#F2F6FF"/>
<path d="M62.1875 34.5H37.8125C33.7809 34.5 30.5 37.6295 30.5 41.475V58.525C30.5 62.3705 33.7809 65.5 37.8125 65.5H62.1875C66.2191 65.5 69.5 62.3705 69.5 58.525V41.475C69.5 37.6295 66.2191 34.5 62.1875 34.5ZM37.8125 36.05H62.1875C63.949 36.05 65.5074 36.8343 66.5522 38.0386L54.0544 49.9613C52.9786 50.9858 51.5243 51.55 49.9967 51.55C48.5115 51.5236 47.0295 50.992 45.9472 49.9613L33.4477 38.0386C34.4926 36.8343 36.0494 36.05 37.8125 36.05ZM67.875 58.525C67.875 61.5165 65.3237 63.95 62.1875 63.95H37.8125C34.6762 63.95 32.125 61.5165 32.125 58.525V41.475C32.125 40.7357 32.2826 40.0319 32.5654 39.3887L44.7984 51.0571C46.1812 52.3761 48.0159 53.1 49.961 53.1C51.9061 53.1 53.8204 52.3761 55.2032 51.0571L67.4362 39.3887C67.719 40.0319 67.8766 40.7357 67.8766 41.475L67.875 58.525Z" fill="#155DFC"/>
</svg>
