<svg width="24" height="22" viewBox="0 0 24 22" fill="none" xmlns="http://www.w3.org/2000/svg">
<path d="M23.3116 8.73325C22.4726 7.48125 21.1316 5.80725 19.2656 4.44125L22.8536 0.85325C23.0486 0.65825 23.0486 0.34125 22.8536 0.14625C22.6586 -0.04875 22.3416 -0.04875 22.1466 0.14625L18.4216 3.87125C16.6786 2.78225 14.5446 1.99925 12.0006 1.99925C6.08159 2.00025 2.37259 6.21925 0.687594 8.73325C-0.234406 10.1102 -0.234406 11.8892 0.687594 13.2662C1.52659 14.5182 2.86759 16.1923 4.73359 17.5583L1.14559 21.1462C0.950594 21.3412 0.950594 21.6583 1.14559 21.8533C1.24359 21.9513 1.37159 21.9993 1.49959 21.9993C1.62759 21.9993 1.75559 21.9503 1.85359 21.8533L5.57859 18.1283C7.32159 19.2173 9.45559 20.0002 11.9996 20.0002C17.9176 20.0002 21.6266 15.7812 23.3116 13.2673C24.2336 11.8903 24.2336 10.1112 23.3116 8.73425V8.73325ZM1.51959 12.7102C0.823594 11.6712 0.823594 10.3293 1.51959 9.29025C3.09259 6.94125 6.54659 3.00025 11.9996 3.00025C14.2296 3.00025 16.1196 3.66425 17.6886 4.60425L15.1456 7.14725C14.2836 6.44225 13.1976 6.00125 11.9996 6.00125C9.24259 6.00125 6.99959 8.24425 6.99959 11.0013C6.99959 12.1993 7.44059 13.2852 8.14559 14.1473L5.45359 16.8393C3.63559 15.5423 2.32859 13.9172 1.51959 12.7102ZM8.85359 13.4402C8.32659 12.7632 8.00059 11.9233 8.00059 11.0002C8.00059 8.79425 9.79459 7.00025 12.0006 7.00025C12.9226 7.00025 13.7626 7.32725 14.4406 7.85325L8.85359 13.4402ZM15.1476 8.56025C15.6746 9.23725 16.0006 10.0772 16.0006 11.0002C16.0006 13.2063 14.2066 15.0002 12.0006 15.0002C11.0786 15.0002 10.2386 14.6733 9.56059 14.1473L15.1476 8.56025ZM22.4816 12.7102C20.9086 15.0592 17.4546 19.0002 12.0016 19.0002C9.77159 19.0002 7.88159 18.3363 6.31259 17.3962L8.85559 14.8532C9.71759 15.5582 10.8036 15.9993 12.0016 15.9993C14.7586 15.9993 17.0016 13.7562 17.0016 10.9992C17.0016 9.80125 16.5606 8.71525 15.8556 7.85325L18.5476 5.16125C20.3656 6.45825 21.6736 8.08325 22.4826 9.29025C23.1786 10.3293 23.1776 11.6712 22.4816 12.7102Z" fill="black"/>
</svg>
