<svg width="24" height="24" viewBox="0 0 24 24" fill="none" xmlns="http://www.w3.org/2000/svg">
<g clip-path="url(#clip0_4706_4321)">
<path d="M23.3116 9.733C21.6276 7.218 17.9176 3 11.9996 3C6.08159 3 2.37259 7.219 0.687594 9.733C-0.234406 11.11 -0.234406 12.889 0.687594 14.266C2.37159 16.781 6.08159 20.999 11.9996 20.999C17.9176 20.999 21.6266 16.78 23.3116 14.266C24.2336 12.889 24.2336 11.11 23.3116 9.733ZM22.4806 13.71C20.9076 16.059 17.4536 20 12.0006 20C6.54759 20 3.09259 16.059 1.51959 13.71C0.823594 12.671 0.823594 11.329 1.51959 10.29C3.09259 7.941 6.54659 4 11.9996 4C17.4526 4 20.9066 7.941 22.4796 10.29C23.1756 11.329 23.1756 12.671 22.4796 13.71H22.4806ZM11.9996 7C9.24259 7 6.99959 9.243 6.99959 12C6.99959 14.757 9.24259 17 11.9996 17C14.7566 17 16.9996 14.757 16.9996 12C16.9996 9.243 14.7566 7 11.9996 7ZM11.9996 16C9.79359 16 7.99959 14.206 7.99959 12C7.99959 9.794 9.79359 8 11.9996 8C14.2056 8 15.9996 9.794 15.9996 12C15.9996 14.206 14.2056 16 11.9996 16Z" fill="black"/>
</g>
<defs>
<clipPath id="clip0_4706_4321">
<rect width="24" height="24" fill="white"/>
</clipPath>
</defs>
</svg>
