<svg width="48" height="48" viewBox="0 0 48 48" fill="none" xmlns="http://www.w3.org/2000/svg">
<rect width="48" height="48" rx="8" fill="#BCFFBC"/>
<g clip-path="url(#clip0_679_7752)">
<path d="M32 22C32 22.276 31.776 22.5 31.5 22.5H29.5V24.5C29.5 24.776 29.276 25 29 25C28.724 25 28.5 24.776 28.5 24.5V22.5H26.5C26.224 22.5 26 22.276 26 22C26 21.724 26.224 21.5 26.5 21.5H28.5V19.5C28.5 19.224 28.724 19 29 19C29.276 19 29.5 19.224 29.5 19.5V21.5H31.5C31.776 21.5 32 21.724 32 22ZM20 23C18.022 23 16.32 24.474 16.04 26.429C16.001 26.702 16.19 26.955 16.464 26.995C16.731 27.029 16.99 26.845 17.03 26.571C17.24 25.106 18.516 24 20 24C21.484 24 22.76 25.105 22.97 26.571C23.006 26.821 23.22 27 23.464 27C23.488 27 23.512 26.999 23.536 26.995C23.809 26.955 23.999 26.703 23.96 26.429C23.68 24.474 21.978 23 20 23ZM17.5 19.5C17.5 18.122 18.621 17 20 17C21.379 17 22.5 18.122 22.5 19.5C22.5 20.878 21.379 22 20 22C18.621 22 17.5 20.878 17.5 19.5ZM18.5 19.5C18.5 20.327 19.173 21 20 21C20.827 21 21.5 20.327 21.5 19.5C21.5 18.673 20.827 18 20 18C19.173 18 18.5 18.673 18.5 19.5ZM36 15.5V28.5C36 30.43 34.43 32 32.5 32H28.968L24.983 35.295C24.422 35.793 23.566 35.783 23.004 35.284L19.106 32H15.5C13.57 32 12 30.43 12 28.5V15.5C12 13.57 13.57 12 15.5 12H32.5C34.43 12 36 13.57 36 15.5ZM35 15.5C35 14.122 33.879 13 32.5 13H15.5C14.121 13 13 14.122 13 15.5V28.5C13 29.878 14.121 31 15.5 31H19.288C19.406 31 19.52 31.042 19.61 31.118L23.658 34.528C23.857 34.706 24.143 34.705 24.332 34.536L28.47 31.115C28.56 31.041 28.672 31 28.788 31H32.5C33.879 31 35 29.878 35 28.5V15.5Z" fill="#009602"/>
</g>
<defs>
<clipPath id="clip0_679_7752">
<rect width="24" height="24" fill="white" transform="translate(12 12)"/>
</clipPath>
</defs>
</svg>
