<svg width="24" height="24" viewBox="0 0 24 24" fill="none" xmlns="http://www.w3.org/2000/svg">
<path d="M7.5 13C9.981 13 12 10.981 12 8.5C12 6.019 9.981 4 7.5 4C5.019 4 3 6.019 3 8.5C3 10.981 5.019 13 7.5 13ZM7.5 5C9.43 5 11 6.57 11 8.5C11 10.43 9.43 12 7.5 12C5.57 12 4 10.43 4 8.5C4 6.57 5.57 5 7.5 5ZM15 19.5V24H14V19.5C14 17.57 12.43 16 10.5 16H4.5C2.57 16 1 17.57 1 19.5V24H0V19.5C0 17.019 2.019 15 4.5 15H10.5C12.981 15 15 17.019 15 19.5ZM17.5 9C19.981 9 22 6.981 22 4.5C22 2.019 19.981 0 17.5 0C15.019 0 13 2.019 13 4.5C13 6.981 15.019 9 17.5 9ZM17.5 1C19.43 1 21 2.57 21 4.5C21 6.43 19.43 8 17.5 8C15.57 8 14 6.43 14 4.5C14 2.57 15.57 1 17.5 1ZM24 15.5V20H23V15.5C23 13.57 21.43 12 19.5 12H13.5C13.306 12 13.119 12.027 12.934 12.057C13.153 11.724 13.343 11.371 13.499 11C13.499 11 13.499 11 13.501 11H19.501C21.982 11 24 13.019 24 15.5Z" fill="#2B2B2B"/>
</svg>
