<svg width="23" height="23" viewBox="0 0 23 23" fill="none" xmlns="http://www.w3.org/2000/svg">
<path d="M21.8779 8.79107L18.1605 5.07369C17.7798 4.70601 17.1731 4.71656 16.8054 5.09727C16.4467 5.46864 16.4467 6.05743 16.8054 6.4288L20.5228 10.1462C20.6333 10.2588 20.7298 10.3843 20.8103 10.5199C20.7959 10.5199 20.7844 10.5122 20.7701 10.5122L5.73957 10.5429C5.2103 10.5429 4.78125 10.972 4.78125 11.5012C4.78125 12.0305 5.2103 12.4596 5.73957 12.4596L20.7643 12.4289C20.7911 12.4289 20.8132 12.4155 20.8391 12.4136C20.7541 12.5757 20.6463 12.7248 20.519 12.8563L16.8016 16.5737C16.4209 16.9414 16.4104 17.548 16.778 17.9288C17.1457 18.3095 17.7524 18.32 18.1331 17.9523C18.1411 17.9446 18.149 17.9368 18.1567 17.9288L21.8741 14.2114C23.3706 12.7145 23.3706 10.288 21.8741 8.79107H21.8779Z" fill="#383838"/>
<path d="M6.70832 21.0833H4.79164C3.20383 21.0833 1.91664 19.7961 1.91664 18.2083V4.79168C1.91664 3.20387 3.20383 1.91668 4.79164 1.91668H6.70832C7.23759 1.91668 7.66664 1.48763 7.66664 0.958363C7.66664 0.429094 7.23763 0 6.70832 0H4.79164C2.14664 0.00318945 0.00318945 2.14664 0 4.79168V18.2084C0.00318945 20.8534 2.14664 22.9969 4.79168 23H6.70836C7.23763 23 7.66668 22.571 7.66668 22.0417C7.66668 21.5124 7.23763 21.0833 6.70832 21.0833Z" fill="#383838"/>
</svg>
