<svg width="173" height="51" viewBox="0 0 173 51" fill="none" xmlns="http://www.w3.org/2000/svg">
<path d="M21.9674 5.25C13.6913 5.25 7 11.9413 7 20.2174C7 30.7826 21.9674 45.75 21.9674 45.75C21.9674 45.75 36.9348 30.7826 36.9348 20.2174C36.9348 11.9413 30.2435 5.25 21.9674 5.25Z" fill="#2563EB"/>
<path d="M25.9293 14.9348H18.0054C17.2761 14.9348 16.6848 15.526 16.6848 16.2554V27.7011C16.6848 28.4304 17.2761 29.0217 18.0054 29.0217H25.9293C26.6587 29.0217 27.25 28.4304 27.25 27.7011V16.2554C27.25 15.526 26.6587 14.9348 25.9293 14.9348Z" fill="white"/>
<path d="M21.0869 16.6957H18.4456V19.337H21.0869V16.6957Z" fill="#2563EB"/>
<path d="M25.4891 16.6957H22.8478V19.337H25.4891V16.6957Z" fill="#2563EB"/>
<path d="M21.0869 21.0978H18.4456V23.7391H21.0869V21.0978Z" fill="#2563EB"/>
<path d="M25.4891 21.0978H22.8478V23.7391H25.4891V21.0978Z" fill="#2563EB"/>
<path d="M52.5598 29.3125V31H46.5129V29.3125H52.5598ZM47.1692 19.625V31H45.0207V19.625H47.1692ZM51.7707 24.3203V25.9688H46.5129V24.3203H51.7707ZM52.5363 19.625V21.3203H46.5129V19.625H52.5363ZM58.5442 28.6875C58.5442 28.5104 58.4973 28.3516 58.4035 28.2109C58.3098 28.0703 58.1327 27.9427 57.8723 27.8281C57.6171 27.7083 57.2421 27.5964 56.7473 27.4922C56.3098 27.3984 55.9061 27.2812 55.5363 27.1406C55.1666 27 54.8488 26.8307 54.5832 26.6328C54.3176 26.4297 54.1093 26.1927 53.9582 25.9219C53.8124 25.6458 53.7395 25.3281 53.7395 24.9688C53.7395 24.6198 53.815 24.2917 53.966 23.9844C54.1171 23.6719 54.3358 23.3984 54.6223 23.1641C54.9087 22.9245 55.2577 22.737 55.6692 22.6016C56.0806 22.4609 56.5442 22.3906 57.0598 22.3906C57.7785 22.3906 58.3957 22.5078 58.9113 22.7422C59.4322 22.9766 59.8306 23.2995 60.1067 23.7109C60.3827 24.1172 60.5207 24.5755 60.5207 25.0859H58.4582C58.4582 24.862 58.4061 24.6589 58.302 24.4766C58.203 24.2943 58.0494 24.1484 57.841 24.0391C57.6327 23.9245 57.3697 23.8672 57.052 23.8672C56.7655 23.8672 56.5233 23.9141 56.3254 24.0078C56.1327 24.1016 55.9869 24.224 55.8879 24.375C55.789 24.526 55.7395 24.6927 55.7395 24.875C55.7395 25.0104 55.7655 25.1328 55.8176 25.2422C55.8749 25.3464 55.966 25.4427 56.091 25.5312C56.216 25.6198 56.3853 25.7005 56.5988 25.7734C56.8176 25.8464 57.0858 25.9167 57.4035 25.9844C58.0337 26.1094 58.5832 26.276 59.052 26.4844C59.5259 26.6875 59.8957 26.9583 60.1613 27.2969C60.427 27.6354 60.5598 28.0677 60.5598 28.5938C60.5598 28.9688 60.4791 29.3125 60.3176 29.625C60.1561 29.9323 59.9218 30.2005 59.6145 30.4297C59.3072 30.6589 58.94 30.8385 58.5129 30.9688C58.0858 31.0938 57.6041 31.1562 57.0676 31.1562C56.2916 31.1562 55.6353 31.0182 55.0988 30.7422C54.5624 30.4609 54.1561 30.1068 53.8801 29.6797C53.6041 29.2474 53.466 28.7995 53.466 28.3359H55.4426C55.4582 28.6641 55.5468 28.9271 55.7082 29.125C55.8697 29.3229 56.0728 29.4661 56.3176 29.5547C56.5676 29.638 56.8306 29.6797 57.1067 29.6797C57.4192 29.6797 57.6822 29.638 57.8957 29.5547C58.1093 29.4661 58.2707 29.349 58.3801 29.2031C58.4895 29.0521 58.5442 28.8802 58.5442 28.6875ZM66.1301 22.5469V24.0312H61.2863V22.5469H66.1301ZM62.5832 20.4688H64.6535V28.5625C64.6535 28.8125 64.6874 29.0052 64.7551 29.1406C64.8228 29.276 64.9244 29.3672 65.0598 29.4141C65.1952 29.4609 65.3567 29.4844 65.5442 29.4844C65.6796 29.4844 65.8046 29.4766 65.9192 29.4609C66.0337 29.4453 66.1301 29.4297 66.2082 29.4141L66.216 30.9609C66.0442 31.0182 65.8488 31.0651 65.6301 31.1016C65.4166 31.138 65.1744 31.1562 64.9035 31.1562C64.44 31.1562 64.0337 31.0781 63.6848 30.9219C63.3358 30.7604 63.065 30.5026 62.8723 30.1484C62.6796 29.7891 62.5832 29.3151 62.5832 28.7266V20.4688ZM72.1613 29.2031V25.3047C72.1613 25.0182 72.1119 24.7708 72.0129 24.5625C71.914 24.3542 71.7629 24.1927 71.5598 24.0781C71.3567 23.9635 71.0988 23.9062 70.7863 23.9062C70.5103 23.9062 70.2681 23.9531 70.0598 24.0469C69.8567 24.1406 69.7004 24.2734 69.591 24.4453C69.4817 24.612 69.427 24.8047 69.427 25.0234H67.3567C67.3567 24.6745 67.44 24.3438 67.6067 24.0312C67.7733 23.7135 68.0103 23.4323 68.3176 23.1875C68.6301 22.9375 69.0025 22.7422 69.4348 22.6016C69.8723 22.4609 70.3619 22.3906 70.9035 22.3906C71.5442 22.3906 72.1145 22.5 72.6145 22.7188C73.1197 22.9323 73.5155 23.2552 73.802 23.6875C74.0936 24.1198 74.2395 24.6641 74.2395 25.3203V29.0078C74.2395 29.4297 74.2655 29.7917 74.3176 30.0938C74.3749 30.3906 74.4582 30.6484 74.5676 30.8672V31H72.466C72.3671 30.7865 72.2916 30.5156 72.2395 30.1875C72.1874 29.8542 72.1613 29.526 72.1613 29.2031ZM72.4504 25.8516L72.466 27.0781H71.1613C70.8384 27.0781 70.5546 27.112 70.3098 27.1797C70.065 27.2422 69.8645 27.3359 69.7082 27.4609C69.552 27.5807 69.4348 27.7266 69.3567 27.8984C69.2785 28.0651 69.2395 28.2552 69.2395 28.4688C69.2395 28.6771 69.2863 28.8646 69.3801 29.0312C69.4791 29.1979 69.6197 29.3307 69.802 29.4297C69.9895 29.5234 70.2082 29.5703 70.4582 29.5703C70.8228 29.5703 71.1405 29.4974 71.4113 29.3516C71.6822 29.2005 71.8931 29.0182 72.0442 28.8047C72.1952 28.5911 72.2759 28.388 72.2863 28.1953L72.8801 29.0859C72.8072 29.2995 72.6978 29.526 72.552 29.7656C72.4061 30.0052 72.2186 30.2292 71.9895 30.4375C71.7603 30.6458 71.4843 30.8177 71.1613 30.9531C70.8384 31.0885 70.4634 31.1562 70.0363 31.1562C69.4895 31.1562 68.9999 31.0469 68.5676 30.8281C68.1353 30.6094 67.7942 30.3099 67.5442 29.9297C67.2942 29.5495 67.1692 29.1172 67.1692 28.6328C67.1692 28.1849 67.2525 27.7891 67.4192 27.4453C67.5858 27.1016 67.8332 26.8125 68.1613 26.5781C68.4895 26.3385 68.8957 26.1589 69.3801 26.0391C69.8697 25.9141 70.4296 25.8516 71.0598 25.8516H72.4504ZM80.0988 22.5469V24.0312H75.2551V22.5469H80.0988ZM76.552 20.4688H78.6223V28.5625C78.6223 28.8125 78.6561 29.0052 78.7238 29.1406C78.7916 29.276 78.8931 29.3672 79.0285 29.4141C79.164 29.4609 79.3254 29.4844 79.5129 29.4844C79.6483 29.4844 79.7733 29.4766 79.8879 29.4609C80.0025 29.4453 80.0988 29.4297 80.177 29.4141L80.1848 30.9609C80.0129 31.0182 79.8176 31.0651 79.5988 31.1016C79.3853 31.138 79.1431 31.1562 78.8723 31.1562C78.4087 31.1562 78.0025 31.0781 77.6535 30.9219C77.3046 30.7604 77.0337 30.5026 76.841 30.1484C76.6483 29.7891 76.552 29.3151 76.552 28.7266V20.4688ZM85.2707 31.1562C84.6301 31.1562 84.0546 31.0521 83.5442 30.8438C83.0337 30.6354 82.5988 30.3464 82.2395 29.9766C81.8853 29.6016 81.6119 29.1667 81.4192 28.6719C81.2317 28.1719 81.1379 27.6354 81.1379 27.0625V26.75C81.1379 26.099 81.2317 25.5078 81.4192 24.9766C81.6067 24.4401 81.8723 23.9792 82.216 23.5938C82.5598 23.2083 82.9712 22.9115 83.4504 22.7031C83.9296 22.4948 84.4582 22.3906 85.0363 22.3906C85.6353 22.3906 86.164 22.4922 86.6223 22.6953C87.0806 22.8932 87.4634 23.1745 87.7707 23.5391C88.078 23.9036 88.3098 24.3411 88.466 24.8516C88.6223 25.3568 88.7004 25.9167 88.7004 26.5312V27.3984H82.0754V25.9766H86.6692V25.8203C86.6587 25.4922 86.5962 25.1927 86.4817 24.9219C86.3671 24.6458 86.19 24.4271 85.9504 24.2656C85.7108 24.099 85.4009 24.0156 85.0207 24.0156C84.7134 24.0156 84.4452 24.0833 84.216 24.2188C83.9921 24.349 83.8046 24.5365 83.6535 24.7812C83.5077 25.0208 83.3983 25.3073 83.3254 25.6406C83.2525 25.974 83.216 26.3438 83.216 26.75V27.0625C83.216 27.4167 83.2629 27.7448 83.3567 28.0469C83.4556 28.349 83.5988 28.612 83.7863 28.8359C83.9791 29.0547 84.2082 29.2266 84.4738 29.3516C84.7447 29.4714 85.052 29.5312 85.3957 29.5312C85.828 29.5312 86.2186 29.4479 86.5676 29.2812C86.9218 29.1094 87.2291 28.8568 87.4895 28.5234L88.5285 29.6016C88.3515 29.862 88.1119 30.112 87.8098 30.3516C87.5129 30.5911 87.1535 30.7865 86.7317 30.9375C86.3098 31.0833 85.8228 31.1562 85.2707 31.1562ZM96.3723 19.625V31H94.2238V19.625H96.3723ZM100.958 24.5391V26.2344H95.8098V24.5391H100.958ZM101.56 19.625V21.3203H95.8098V19.625H101.56ZM105.052 19V31H102.982V19H105.052ZM106.654 26.8594V26.6953C106.654 26.0755 106.742 25.5052 106.919 24.9844C107.096 24.4583 107.354 24.0026 107.693 23.6172C108.031 23.2318 108.445 22.9323 108.935 22.7188C109.424 22.5 109.982 22.3906 110.607 22.3906C111.242 22.3906 111.805 22.5 112.294 22.7188C112.789 22.9323 113.206 23.2318 113.544 23.6172C113.883 24.0026 114.141 24.4583 114.318 24.9844C114.495 25.5052 114.583 26.0755 114.583 26.6953V26.8594C114.583 27.474 114.495 28.0443 114.318 28.5703C114.141 29.0911 113.883 29.5469 113.544 29.9375C113.206 30.3229 112.792 30.6224 112.302 30.8359C111.812 31.0495 111.252 31.1562 110.622 31.1562C109.997 31.1562 109.437 31.0495 108.943 30.8359C108.448 30.6224 108.031 30.3229 107.693 29.9375C107.354 29.5469 107.096 29.0911 106.919 28.5703C106.742 28.0443 106.654 27.474 106.654 26.8594ZM108.716 26.6953V26.8594C108.716 27.2292 108.752 27.5755 108.825 27.8984C108.898 28.2214 109.01 28.5052 109.161 28.75C109.312 28.9948 109.508 29.1875 109.747 29.3281C109.992 29.4635 110.284 29.5312 110.622 29.5312C110.956 29.5312 111.242 29.4635 111.482 29.3281C111.721 29.1875 111.917 28.9948 112.068 28.75C112.224 28.5052 112.338 28.2214 112.411 27.8984C112.484 27.5755 112.521 27.2292 112.521 26.8594V26.6953C112.521 26.3307 112.484 25.9896 112.411 25.6719C112.338 25.349 112.224 25.0651 112.068 24.8203C111.917 24.5703 111.719 24.375 111.474 24.2344C111.234 24.0885 110.945 24.0156 110.607 24.0156C110.273 24.0156 109.987 24.0885 109.747 24.2344C109.508 24.375 109.312 24.5703 109.161 24.8203C109.01 25.0651 108.898 25.349 108.825 25.6719C108.752 25.9896 108.716 26.3307 108.716 26.6953ZM118.435 28.9688L120.286 22.5469H121.599L121.208 24.7656L119.341 31H118.208L118.435 28.9688ZM117.411 22.5469L118.802 28.9844L118.927 31H117.622L115.404 22.5469H117.411ZM123.318 28.8906L124.677 22.5469H126.677L124.474 31H123.169L123.318 28.8906ZM121.802 22.5469L123.638 28.9062L123.88 31H122.747L120.864 24.7656L120.482 22.5469H121.802ZM138.693 27.2578H140.841C140.784 28.0182 140.573 28.6927 140.208 29.2812C139.844 29.8646 139.336 30.3229 138.685 30.6562C138.034 30.9896 137.245 31.1562 136.318 31.1562C135.604 31.1562 134.961 31.0312 134.388 30.7812C133.82 30.526 133.333 30.1641 132.927 29.6953C132.526 29.2214 132.219 28.6536 132.005 27.9922C131.792 27.3255 131.685 26.5781 131.685 25.75V24.8828C131.685 24.0547 131.794 23.3073 132.013 22.6406C132.232 21.974 132.544 21.4062 132.95 20.9375C133.362 20.4635 133.854 20.099 134.427 19.8438C135.005 19.5885 135.651 19.4609 136.364 19.4609C137.292 19.4609 138.075 19.6328 138.716 19.9766C139.357 20.3151 139.854 20.7812 140.208 21.375C140.562 21.9688 140.776 22.651 140.849 23.4219H138.7C138.659 22.9427 138.555 22.5365 138.388 22.2031C138.226 21.8698 137.982 21.6172 137.654 21.4453C137.331 21.2682 136.901 21.1797 136.364 21.1797C135.948 21.1797 135.581 21.2578 135.263 21.4141C134.95 21.5703 134.69 21.8047 134.482 22.1172C134.273 22.4245 134.117 22.8099 134.013 23.2734C133.909 23.7318 133.857 24.263 133.857 24.8672V25.75C133.857 26.3281 133.904 26.8464 133.997 27.3047C134.091 27.763 134.237 28.151 134.435 28.4688C134.633 28.7865 134.888 29.0286 135.2 29.1953C135.513 29.362 135.885 29.4453 136.318 29.4453C136.844 29.4453 137.271 29.362 137.599 29.1953C137.932 29.0286 138.185 28.7839 138.357 28.4609C138.534 28.138 138.646 27.737 138.693 27.2578ZM142.505 19.625H146.638C147.502 19.625 148.245 19.7552 148.864 20.0156C149.484 20.276 149.961 20.6615 150.294 21.1719C150.627 21.6823 150.794 22.3099 150.794 23.0547C150.794 23.6432 150.69 24.1536 150.482 24.5859C150.273 25.0182 149.979 25.3802 149.599 25.6719C149.224 25.9635 148.781 26.1927 148.271 26.3594L147.599 26.7031H143.95L143.935 25.0078H146.661C147.104 25.0078 147.471 24.9297 147.763 24.7734C148.055 24.6172 148.273 24.401 148.419 24.125C148.57 23.849 148.646 23.5339 148.646 23.1797C148.646 22.7995 148.573 22.4714 148.427 22.1953C148.281 21.9141 148.06 21.6979 147.763 21.5469C147.466 21.3958 147.091 21.3203 146.638 21.3203H144.654V31H142.505V19.625ZM148.927 31L146.294 25.9062L148.568 25.8984L151.232 30.8906V31H148.927ZM153.614 19.625H155.474L158.583 28.1875L161.685 19.625H163.552L159.325 31H157.833L153.614 19.625ZM152.677 19.625H154.497L154.825 27.4922V31H152.677V19.625ZM162.661 19.625H164.489V31H162.341V27.4922L162.661 19.625Z" fill="url(#paint0_linear_39_13)"/>
<defs>
<linearGradient id="paint0_linear_39_13" x1="43.9348" y1="25.5" x2="165.935" y2="25.5" gradientUnits="userSpaceOnUse">
<stop stop-color="#019D98"/>
<stop offset="1" stop-color="#0036AD"/>
</linearGradient>
</defs>
</svg>
