<svg width="24" height="22" viewBox="0 0 24 22" fill="none" xmlns="http://www.w3.org/2000/svg">
<path d="M8 14.5V18.5C8 18.776 7.776 19 7.5 19C7.224 19 7 18.776 7 18.5V14.5C7 14.224 7.224 14 7.5 14C7.776 14 8 14.224 8 14.5ZM16.5 15C16.224 15 16 15.224 16 15.5V18.5C16 18.776 16.224 19 16.5 19C16.776 19 17 18.776 17 18.5V15.5C17 15.224 16.776 15 16.5 15ZM10.5 10C10.224 10 10 10.224 10 10.5V18.5C10 18.776 10.224 19 10.5 19C10.776 19 11 18.776 11 18.5V10.5C11 10.224 10.776 10 10.5 10ZM13.5 12C13.224 12 13 12.224 13 12.5V18.5C13 18.776 13.224 19 13.5 19C13.776 19 14 18.776 14 18.5V12.5C14 12.224 13.776 12 13.5 12ZM24 4.5V17.5C24 19.981 21.981 22 19.5 22H4.5C2.019 22 0 19.981 0 17.5V4.5C0 2.019 2.019 0 4.5 0H19.5C21.981 0 24 2.019 24 4.5ZM1 4.5V7H23V4.5C23 2.57 21.43 1 19.5 1H4.5C2.57 1 1 2.57 1 4.5ZM23 17.5V8H1V17.5C1 19.43 2.57 21 4.5 21H19.5C21.43 21 23 19.43 23 17.5ZM4 5C4.552 5 5 4.552 5 4C5 3.448 4.552 3 4 3C3.448 3 3 3.448 3 4C3 4.552 3.448 5 4 5ZM7 5C7.552 5 8 4.552 8 4C8 3.448 7.552 3 7 3C6.448 3 6 3.448 6 4C6 4.552 6.448 5 7 5ZM10 5C10.552 5 11 4.552 11 4C11 3.448 10.552 3 10 3C9.448 3 9 3.448 9 4C9 4.552 9.448 5 10 5Z" fill="black"/>
</svg>
