<svg width="22" height="24" viewBox="0 0 22 24" fill="none" xmlns="http://www.w3.org/2000/svg">
<path d="M19.8939 14.173L19.4489 13.899C19.5889 13.259 19.6599 12.622 19.6599 12C19.6599 11.378 19.5889 10.74 19.4489 10.101L19.8939 9.827C20.5759 9.406 21.0539 8.745 21.2379 7.965C21.4229 7.186 21.2919 6.38 20.8709 5.698C20.0019 4.291 18.1509 3.853 16.7429 4.72L16.2979 4.995C15.4969 4.348 14.6129 3.85 13.6599 3.514V3C13.6599 1.346 12.3139 0 10.6599 0C9.00589 0 7.65989 1.346 7.65989 3V3.514C6.70689 3.851 5.82289 4.348 5.02189 4.995L4.57689 4.72C3.16789 3.853 1.31689 4.29 0.448894 5.698C0.0278944 6.38 -0.102106 7.185 0.0818944 7.965C0.266894 8.745 0.743894 9.406 1.42589 9.827L1.87089 10.101C1.73089 10.741 1.65989 11.378 1.65989 12C1.65989 12.622 1.73089 13.26 1.87089 13.899L1.42589 14.173C0.743894 14.594 0.265894 15.255 0.0818944 16.035C-0.103106 16.814 0.0278944 17.62 0.448894 18.302C1.31689 19.709 3.16989 20.147 4.57689 19.28L5.02189 19.005C5.82289 19.652 6.70689 20.15 7.65989 20.486V21C7.65989 22.654 9.00589 24 10.6599 24C12.3139 24 13.6599 22.654 13.6599 21V20.486C14.6129 20.149 15.4969 19.652 16.2979 19.005L16.7429 19.28C18.1529 20.147 20.0029 19.71 20.8709 18.302C21.2919 17.62 21.4219 16.815 21.2379 16.035C21.0529 15.255 20.5759 14.594 19.8939 14.173ZM20.0199 17.777C19.4399 18.715 18.2049 19.009 17.2679 18.428L16.5149 17.963C16.3279 17.849 16.0879 17.868 15.9229 18.013C15.0609 18.769 14.0819 19.318 13.0129 19.647C12.8029 19.711 12.6599 19.905 12.6599 20.125V21C12.6599 22.103 11.7629 23 10.6599 23C9.55689 23 8.65989 22.103 8.65989 21V20.125C8.65989 19.905 8.51689 19.712 8.30689 19.647C7.23789 19.318 6.25889 18.769 5.39689 18.013C5.30289 17.931 5.18589 17.889 5.06689 17.889C4.97589 17.889 4.88489 17.913 4.80389 17.963L4.05089 18.428C3.11289 19.009 1.87789 18.715 1.29889 17.777C1.01889 17.323 0.931894 16.786 1.05489 16.266C1.17789 15.745 1.49589 15.305 1.95089 15.025L2.70389 14.56C2.89089 14.445 2.97989 14.221 2.92489 14.008C2.74889 13.329 2.65989 12.654 2.65989 11.999C2.65989 11.344 2.74889 10.669 2.92489 9.99C2.97989 9.777 2.88989 9.553 2.70389 9.438L1.95089 8.973C1.49589 8.693 1.17889 8.252 1.05489 7.732C0.931894 7.212 1.01889 6.675 1.29889 6.221C1.87889 5.282 3.11289 4.989 4.05089 5.57L4.80389 6.035C4.99089 6.149 5.22989 6.13 5.39589 5.985C6.25789 5.229 7.23689 4.68 8.30589 4.351C8.51589 4.287 8.65889 4.093 8.65889 3.873V2.998C8.65889 1.895 9.55589 0.998 10.6589 0.998C11.7619 0.998 12.6589 1.895 12.6589 2.998V3.873C12.6589 4.093 12.8019 4.286 13.0119 4.351C14.0809 4.68 15.0599 5.229 15.9219 5.985C16.0879 6.13 16.3279 6.149 16.5139 6.035L17.2669 5.57C18.2049 4.989 19.4389 5.282 20.0189 6.221C20.2989 6.675 20.3859 7.212 20.2629 7.732C20.1399 8.253 19.8219 8.693 19.3669 8.973L18.6139 9.438C18.4269 9.553 18.3379 9.777 18.3929 9.99C18.5689 10.669 18.6579 11.344 18.6579 11.999C18.6579 12.654 18.5689 13.329 18.3929 14.008C18.3379 14.221 18.4279 14.445 18.6139 14.56L19.3669 15.025C19.8219 15.305 20.1389 15.746 20.2629 16.266C20.3859 16.786 20.2989 17.323 20.0189 17.777H20.0199ZM10.6599 7.999C8.45389 7.999 6.65989 9.793 6.65989 11.999C6.65989 14.205 8.45389 15.999 10.6599 15.999C12.8659 15.999 14.6599 14.205 14.6599 11.999C14.6599 9.793 12.8659 7.999 10.6599 7.999ZM10.6599 14.999C9.00589 14.999 7.65989 13.653 7.65989 11.999C7.65989 10.345 9.00589 8.999 10.6599 8.999C12.3139 8.999 13.6599 10.345 13.6599 11.999C13.6599 13.653 12.3139 14.999 10.6599 14.999Z" fill="black"/>
</svg>
