<svg width="48" height="48" viewBox="0 0 48 48" fill="none" xmlns="http://www.w3.org/2000/svg">
<rect width="48" height="48" rx="8" fill="#BCFFE2"/>
<path d="M19.4995 25C21.9805 25 23.9995 22.981 23.9995 20.5C23.9995 18.019 21.9805 16 19.4995 16C17.0185 16 14.9995 18.019 14.9995 20.5C14.9995 22.981 17.0185 25 19.4995 25ZM19.4995 17C21.4295 17 22.9995 18.57 22.9995 20.5C22.9995 22.43 21.4295 24 19.4995 24C17.5695 24 15.9995 22.43 15.9995 20.5C15.9995 18.57 17.5695 17 19.4995 17ZM26.9995 31.5V36H25.9995V31.5C25.9995 29.57 24.4295 28 22.4995 28H16.4995C14.5695 28 12.9995 29.57 12.9995 31.5V36H11.9995V31.5C11.9995 29.019 14.0185 27 16.4995 27H22.4995C24.9805 27 26.9995 29.019 26.9995 31.5ZM29.4995 21C31.9805 21 33.9995 18.981 33.9995 16.5C33.9995 14.019 31.9805 12 29.4995 12C27.0185 12 24.9995 14.019 24.9995 16.5C24.9995 18.981 27.0185 21 29.4995 21ZM29.4995 13C31.4295 13 32.9995 14.57 32.9995 16.5C32.9995 18.43 31.4295 20 29.4995 20C27.5695 20 25.9995 18.43 25.9995 16.5C25.9995 14.57 27.5695 13 29.4995 13ZM35.9995 27.5V32H34.9995V27.5C34.9995 25.57 33.4295 24 31.4995 24H25.4995C25.3055 24 25.1185 24.027 24.9335 24.057C25.1525 23.724 25.3425 23.371 25.4985 23C25.4985 23 25.4985 23 25.5005 23H31.5005C33.9815 23 35.9995 25.019 35.9995 27.5Z" fill="#005B33"/>
</svg>
