<svg width="48" height="48" viewBox="0 0 48 48" fill="none" xmlns="http://www.w3.org/2000/svg">
<rect width="48" height="48" rx="8" fill="#FFF2BC"/>
<g clip-path="url(#clip0_659_519)">
<path d="M24 20C25.103 20 26 19.103 26 18C26 16.897 25.103 16 24 16C22.897 16 22 16.897 22 18C22 19.103 22.897 20 24 20ZM24 17C24.552 17 25 17.448 25 18C25 18.552 24.552 19 24 19C23.448 19 23 18.552 23 18C23 17.448 23.448 17 24 17ZM32 31C33.379 31 34.5 29.879 34.5 28.5C34.5 27.121 33.379 26 32 26C30.621 26 29.5 27.121 29.5 28.5C29.5 29.879 30.621 31 32 31ZM32 27C32.827 27 33.5 27.673 33.5 28.5C33.5 29.327 32.827 30 32 30C31.173 30 30.5 29.327 30.5 28.5C30.5 27.673 31.173 27 32 27ZM13.5 28.5C13.5 29.879 14.621 31 16 31C17.379 31 18.5 29.879 18.5 28.5C18.5 27.121 17.379 26 16 26C14.621 26 13.5 27.121 13.5 28.5ZM17.5 28.5C17.5 29.327 16.827 30 16 30C15.173 30 14.5 29.327 14.5 28.5C14.5 27.673 15.173 27 16 27C16.827 27 17.5 27.673 17.5 28.5ZM35.956 35.424C35.998 35.697 35.772 35.958 35.5 36C35.258 36 35.006 35.823 34.968 35.576C34.743 34.107 33.36 33 31.75 33C30.14 33 28.757 34.107 28.532 35.576C28.495 35.82 28.24 35.994 28 36C27.76 36 27.507 35.826 27.467 35.581C27.226 34.109 25.736 33 24 33C22.264 33 20.774 34.109 20.533 35.581C20.493 35.824 20.233 35.998 20 36C19.758 36 19.506 35.823 19.468 35.576C19.243 34.107 17.86 33 16.25 33C14.64 33 13.257 34.107 13.032 35.576C12.99 35.849 12.74 36.035 12.462 35.994C12.19 35.952 12.002 35.697 12.044 35.424C12.343 33.472 14.151 32 16.25 32C17.863 32 19.298 32.874 20.014 34.163C20.773 32.874 22.292 32 24 32C25.708 32 27.227 32.874 27.986 34.163C28.702 32.874 30.137 32 31.75 32C33.849 32 35.657 33.472 35.956 35.424ZM36 21.5V24.5C36 24.776 35.776 25 35.5 25C35.224 25 35 24.776 35 24.5V21.5C35 20.121 33.879 19 32.5 19H31.5C31.224 19 31 18.776 31 18.5C31 18.224 31.224 18 31.5 18H32.5C34.43 18 36 19.57 36 21.5ZM18.669 19.903C18.568 20.292 18.625 20.695 18.827 21.04C19.03 21.386 19.355 21.632 19.743 21.732C20.132 21.836 20.535 21.777 20.882 21.573L21.105 21.442C21.512 21.782 21.986 22.048 22.501 22.228V22.499C22.501 23.326 23.174 23.999 24.001 23.999C24.828 23.999 25.501 23.326 25.501 22.499V22.228C26.016 22.048 26.489 21.782 26.897 21.442L27.12 21.573C27.467 21.777 27.87 21.836 28.259 21.732C28.647 21.631 28.972 21.385 29.174 21.041C29.377 20.695 29.434 20.292 29.333 19.903C29.232 19.515 28.986 19.19 28.641 18.986L28.409 18.849C28.472 18.55 28.503 18.274 28.503 17.999C28.503 17.724 28.473 17.448 28.408 17.148L28.641 17.011C28.987 16.808 29.233 16.483 29.333 16.095C29.434 15.706 29.377 15.303 29.175 14.958C28.972 14.612 28.647 14.366 28.259 14.266C27.87 14.163 27.467 14.221 27.12 14.425L26.897 14.556C26.49 14.216 26.016 13.95 25.501 13.77V13.499C25.501 12.672 24.828 11.999 24.001 11.999C23.174 11.999 22.501 12.672 22.501 13.499V13.77C21.986 13.95 21.513 14.216 21.105 14.556L20.882 14.425C20.535 14.221 20.132 14.163 19.743 14.266C19.355 14.367 19.03 14.613 18.828 14.957C18.625 15.303 18.568 15.706 18.669 16.095C18.77 16.483 19.016 16.808 19.36 17.01L19.594 17.148C19.53 17.448 19.499 17.724 19.499 17.999C19.499 18.274 19.529 18.55 19.593 18.849L19.36 18.987C19.015 19.19 18.769 19.515 18.669 19.903ZM20.65 18.955C20.547 18.594 20.5 18.29 20.5 18C20.5 17.71 20.548 17.406 20.65 17.045C20.712 16.826 20.62 16.593 20.423 16.478L19.866 16.15C19.751 16.083 19.669 15.974 19.636 15.845C19.603 15.716 19.621 15.581 19.69 15.466C19.757 15.351 19.865 15.269 19.995 15.236C20.125 15.202 20.259 15.221 20.374 15.289L20.914 15.607C21.111 15.723 21.362 15.692 21.521 15.53C21.952 15.098 22.505 14.787 23.125 14.627C23.346 14.569 23.5 14.37 23.5 14.143V13.501C23.5 13.226 23.725 13.001 24 13.001C24.275 13.001 24.5 13.226 24.5 13.501V14.143C24.5 14.371 24.654 14.57 24.875 14.627C25.494 14.787 26.048 15.099 26.479 15.53C26.639 15.691 26.889 15.722 27.086 15.607L27.626 15.289C27.74 15.222 27.875 15.203 28.005 15.236C28.135 15.269 28.242 15.351 28.311 15.467C28.378 15.581 28.397 15.716 28.364 15.845C28.331 15.974 28.249 16.082 28.133 16.151L27.577 16.478C27.381 16.593 27.288 16.827 27.35 17.045C27.453 17.406 27.5 17.71 27.5 18C27.5 18.29 27.452 18.594 27.35 18.955C27.288 19.174 27.381 19.407 27.578 19.523L28.133 19.848C28.249 19.916 28.331 20.025 28.364 20.155C28.397 20.284 28.379 20.419 28.31 20.534C28.243 20.649 28.135 20.731 28.005 20.764C27.873 20.797 27.741 20.779 27.626 20.711L27.086 20.393C26.89 20.278 26.64 20.309 26.479 20.47C26.048 20.902 25.495 21.213 24.875 21.373C24.654 21.431 24.5 21.63 24.5 21.857V22.499C24.5 22.774 24.275 22.999 24 22.999C23.725 22.999 23.5 22.774 23.5 22.499V21.857C23.5 21.629 23.346 21.43 23.125 21.373C22.506 21.213 21.952 20.901 21.521 20.47C21.425 20.373 21.296 20.324 21.167 20.324C21.08 20.324 20.992 20.346 20.913 20.393L20.373 20.711C20.26 20.778 20.126 20.798 19.994 20.764C19.864 20.731 19.757 20.649 19.688 20.533C19.621 20.419 19.602 20.284 19.635 20.155C19.668 20.025 19.75 19.917 19.865 19.849L20.421 19.523C20.617 19.407 20.712 19.173 20.65 18.955ZM12 24.5V21.5C12 19.57 13.57 18 15.5 18H16.5C16.776 18 17 18.224 17 18.5C17 18.776 16.776 19 16.5 19H15.5C14.121 19 13 20.121 13 21.5V24.5C13 24.776 12.776 25 12.5 25C12.224 25 12 24.776 12 24.5ZM21.5 28.5C21.5 29.879 22.621 31 24 31C25.379 31 26.5 29.879 26.5 28.5C26.5 27.121 25.379 26 24 26C22.621 26 21.5 27.121 21.5 28.5ZM25.5 28.5C25.5 29.327 24.827 30 24 30C23.173 30 22.5 29.327 22.5 28.5C22.5 27.673 23.173 27 24 27C24.827 27 25.5 27.673 25.5 28.5Z" fill="#B38F00"/>
</g>
<defs>
<clipPath id="clip0_659_519">
<rect width="24" height="24" fill="white" transform="translate(12 12)"/>
</clipPath>
</defs>
</svg>
